<svg width="204" height="801" viewBox="0 0 204 801" fill="none" xmlns="http://www.w3.org/2000/svg">
<path d="M74.0919 621.643L76.0119 621.644C76.0742 623.82 76.329 625.485 76.7761 626.637C77.1593 627.725 77.9267 628.462 79.0784 628.847C80.1661 629.232 81.894 629.425 84.262 629.427L131.878 629.463C134.182 629.464 135.91 629.274 137.062 628.891C138.215 628.508 138.983 627.772 139.368 626.684C139.753 625.533 140.01 623.869 140.14 621.693L142.06 621.694C141.931 623.166 141.865 625.022 141.864 627.262C141.798 629.438 141.764 631.646 141.763 633.886C141.761 636.382 141.791 638.718 141.853 640.894C141.852 643.07 141.914 644.83 142.041 646.174L140.121 646.173C139.995 643.997 139.74 642.365 139.357 641.276C138.974 640.124 138.206 639.356 137.055 638.971C135.903 638.586 134.175 638.392 131.871 638.391L79.0712 638.351L79.3595 637.967L142.51 661.535L142.509 663.071L80.1862 687.216L130.874 687.254C133.178 687.256 135.002 687.065 136.347 686.682C137.627 686.235 138.556 685.404 139.133 684.188C139.646 682.909 139.967 681.021 140.097 678.525L142.017 678.526C141.888 679.678 141.823 681.182 141.821 683.038C141.756 684.894 141.723 686.654 141.721 688.318C141.72 689.918 141.751 691.55 141.814 693.214C141.813 694.814 141.875 696.158 142.003 697.246L140.083 697.245C139.956 695.069 139.638 693.437 139.126 692.348C138.551 691.196 137.624 690.427 136.344 690.042C135 689.657 133.177 689.464 130.873 689.462L84.2166 689.427C81.8486 689.425 80.1204 689.616 79.0321 689.999C77.8798 690.382 77.1113 691.149 76.7264 692.301C76.2776 693.389 76.0203 695.02 75.9547 697.196L74.0347 697.195C74.0995 696.107 74.1645 694.763 74.2297 693.163C74.295 691.499 74.3282 689.867 74.3294 688.267C74.3305 686.859 74.2996 685.419 74.2367 683.947C74.1739 682.411 74.1108 681.131 74.0476 680.107L131.472 658.358L132.239 659.991L74.3672 638.347C74.3678 637.579 74.3684 636.843 74.3689 636.139C74.3695 635.371 74.3701 634.603 74.3707 633.835C74.3724 631.595 74.342 629.387 74.2797 627.211C74.2174 624.971 74.1548 623.115 74.0919 621.643ZM73.6384 586.594L134.04 563.215C136.473 562.257 138.106 561.17 138.939 559.955C139.708 558.74 140.124 557.62 140.189 556.596L142.109 556.597C141.98 557.877 141.915 559.445 141.914 561.301C141.848 563.157 141.815 565.013 141.813 566.869C141.812 569.365 141.842 571.701 141.904 573.877C141.902 576.053 141.965 577.813 142.092 579.157L140.172 579.156C140.047 575.892 139.504 573.812 138.545 572.915C137.521 572.018 135.377 572.208 132.112 573.486L84.3869 591.306L83.14 589.769L126.519 606.506C129.079 607.532 131.254 608.141 133.046 608.335C134.774 608.528 136.15 608.369 137.174 607.858C138.199 607.283 138.935 606.355 139.384 605.075C139.833 603.732 140.091 602.068 140.156 600.084L142.076 600.085C141.947 601.877 141.881 603.765 141.88 605.749C141.814 607.669 141.781 609.461 141.78 611.125C141.779 612.725 141.81 614.101 141.873 615.253C141.872 616.341 141.935 617.365 142.062 618.325L140.142 618.324C139.823 617.044 139.088 615.731 137.937 614.386C136.722 613.041 134.675 611.824 131.796 610.734L73.6373 588.13C73.6375 587.874 73.6377 587.618 73.6379 587.362C73.638 587.106 73.6382 586.85 73.6384 586.594ZM114.447 574.913L116.367 574.914L116.346 603.522L114.426 602.561L114.447 574.913ZM74.1609 530.496L76.0809 530.498C76.1433 532.674 76.398 534.338 76.8451 535.49C77.2283 536.579 77.9958 537.315 79.1475 537.7C80.2352 538.085 81.963 538.278 84.331 538.28L131.947 538.316C134.251 538.318 135.979 538.127 137.131 537.744C138.284 537.361 139.052 536.625 139.437 535.538C139.822 534.386 140.079 532.722 140.209 530.546L142.129 530.548C142 532.02 141.934 533.876 141.933 536.116C141.867 538.292 141.833 540.5 141.832 542.74C141.83 545.236 141.86 547.572 141.922 549.748C141.921 551.924 141.983 553.684 142.11 555.028L140.19 555.026C140.064 552.85 139.809 551.218 139.426 550.13C139.043 548.977 138.276 548.209 137.124 547.824C135.972 547.439 134.244 547.246 131.94 547.244L84.3243 547.208C81.9563 547.206 80.2281 547.397 79.1398 547.78C77.9875 548.163 77.219 548.931 76.8341 550.082C76.3853 551.17 76.128 552.802 76.0624 554.978L74.1424 554.976C74.2074 553.632 74.2727 551.872 74.3384 549.696C74.404 547.52 74.4378 545.184 74.4397 542.688C74.4414 540.448 74.4111 538.24 74.3487 536.064C74.2864 533.824 74.2238 531.968 74.1609 530.496ZM74.2127 462.157L76.1327 462.158C76.195 464.335 76.5138 465.999 77.0889 467.151C77.6641 468.24 78.5915 468.976 79.8712 469.361C81.1509 469.746 82.9748 469.94 85.3428 469.941L142.655 469.985C142.654 470.369 142.654 470.753 142.654 471.137C142.654 471.457 142.653 471.809 142.653 472.193L80.3186 512.466L131.007 512.504C133.311 512.506 135.135 512.315 136.479 511.932C137.759 511.485 138.688 510.654 139.265 509.438C139.778 508.159 140.099 506.271 140.229 503.775L142.149 503.776C142.02 504.928 141.955 506.432 141.954 508.288C141.888 510.144 141.855 511.904 141.854 513.568C141.853 515.168 141.883 516.8 141.946 518.464C141.945 520.064 142.008 521.408 142.135 522.496L140.215 522.495C140.089 520.319 139.77 518.687 139.259 517.598C138.684 516.446 137.756 515.677 136.476 515.292C135.133 514.907 133.309 514.714 131.005 514.712L84.3489 514.677C81.9809 514.675 80.2528 514.866 79.1645 515.249C78.0122 515.632 77.2436 516.399 76.8587 517.551C76.4099 518.639 76.1527 520.271 76.087 522.446L74.167 522.445C74.2318 521.357 74.2969 520.013 74.3621 518.413C74.4273 516.749 74.4606 515.117 74.4618 513.517C74.4628 512.109 74.4319 510.765 74.3688 509.485C74.3058 508.205 74.2427 507.053 74.1795 506.029L126.429 472.181L85.3411 472.149C82.9731 472.148 81.1489 472.37 79.8686 472.817C78.5883 473.2 77.6597 474.032 77.0827 475.311C76.5058 476.527 76.1844 478.383 76.1185 480.878L74.1985 480.877C74.2634 479.725 74.3285 478.221 74.3939 476.365C74.4594 474.445 74.4927 472.685 74.4939 471.085C74.4952 469.421 74.4644 467.789 74.4016 466.189C74.3389 464.525 74.2759 463.181 74.2127 462.157ZM74.2563 404.55C74.265 393.094 77.1514 384.584 82.9156 379.02C88.6158 373.456 96.81 370.679 107.498 370.687C114.474 370.692 120.585 372.073 125.831 374.829C131.013 377.521 135.042 381.46 137.918 386.646C140.794 391.832 142.229 398.105 142.224 405.465C142.223 406.425 142.19 407.705 142.125 409.305C142.06 410.905 142.026 412.569 142.025 414.297C141.96 415.961 141.927 417.497 141.925 418.905C141.924 421.145 141.954 423.353 142.016 425.529C142.015 427.705 142.077 429.465 142.204 430.809L140.284 430.808C140.158 428.631 139.903 426.999 139.52 425.911C139.137 424.759 138.37 423.99 137.218 423.605C136.066 423.22 134.338 423.027 132.034 423.025L84.4183 422.989C82.0503 422.987 80.3222 423.178 79.2339 423.561C78.0816 423.944 77.313 424.712 76.9282 425.864C76.4793 426.951 76.2221 428.583 76.1565 430.759L74.2365 430.758C74.3015 429.414 74.3988 427.654 74.5284 425.478C74.5941 423.302 74.5957 421.158 74.5333 419.046C74.471 416.806 74.4089 414.278 74.3471 411.462C74.2852 408.646 74.2549 406.342 74.2563 404.55ZM75.9825 406.951C75.9802 409.895 76.5228 411.815 77.6101 412.712C78.6974 413.609 80.9051 414.059 84.2331 414.061L132.233 414.097C135.561 414.1 137.769 413.654 138.858 412.758C139.947 411.799 140.492 409.848 140.495 406.904C140.5 399.928 139.256 394.519 136.763 390.677C134.206 386.835 130.496 384.144 125.633 382.604C120.77 381.065 114.851 380.292 107.875 380.287C100.707 380.282 94.786 381.141 90.1127 382.866C85.3755 384.526 81.8534 387.307 79.5464 391.21C77.1755 395.048 75.9875 400.295 75.9825 406.951ZM74.3069 337.746L76.2269 337.748C76.2892 339.924 76.544 341.588 76.9911 342.74C77.3743 343.829 78.1417 344.565 79.2934 344.95C80.3811 345.335 82.109 345.528 84.477 345.53L132.093 345.566C134.397 345.568 136.125 345.377 137.277 344.994C138.43 344.611 139.198 343.875 139.583 342.788C139.968 341.636 140.225 339.972 140.355 337.796L142.275 337.798C142.146 339.27 142.08 341.126 142.079 343.366C142.013 345.542 141.979 347.75 141.978 349.99C141.976 352.486 142.006 354.822 142.068 356.998C142.067 359.174 142.129 360.934 142.256 362.278L140.336 362.276C140.21 360.1 139.955 358.468 139.572 357.38C139.189 356.227 138.421 355.459 137.27 355.074C136.118 354.689 134.39 354.496 132.086 354.494L84.4702 354.458C82.1022 354.456 80.3741 354.647 79.2858 355.03C78.1335 355.413 77.3649 356.181 76.9801 357.332C76.5312 358.42 76.274 360.052 76.2084 362.228L74.2884 362.226C74.3534 360.882 74.4187 359.122 74.4843 356.946C74.55 354.771 74.5838 352.435 74.5857 349.939C74.5874 347.699 74.557 345.491 74.4947 343.314C74.4324 341.074 74.3698 339.218 74.3069 337.746ZM73.2725 309.15C73.275 305.95 73.6608 303.519 74.4301 301.855C75.1353 300.192 75.9364 298.72 76.8334 297.441C77.282 296.673 77.6345 296.066 77.8908 295.618C78.0832 295.106 78.1795 294.626 78.1799 294.178C78.1804 293.538 77.8287 293.09 77.1249 292.833C76.4211 292.513 75.3653 292.256 73.9575 292.063L73.9592 289.855C75.0471 289.92 76.359 290.017 77.8949 290.146C79.3669 290.211 81.3508 290.276 83.8468 290.342C86.2788 290.344 89.5108 290.347 93.5428 290.35L93.5411 292.558C90.469 292.747 87.5245 293.417 84.7076 294.567C81.8907 295.717 79.5854 297.411 77.7917 299.65C75.9981 301.824 75.0999 304.704 75.0972 308.288C75.0946 311.68 76.1165 314.496 78.1628 316.738C80.2092 318.916 82.8963 320.006 86.2243 320.008C89.1043 320.01 91.5369 319.276 93.522 317.806C95.4431 316.335 97.2046 314.384 98.8064 311.954C100.344 309.459 102.01 306.772 103.805 303.893C105.855 300.567 107.905 297.625 109.955 295.066C111.941 292.444 114.151 290.397 116.584 288.927C119.017 287.393 121.962 286.627 125.418 286.63C129.514 286.633 132.905 287.563 135.592 289.421C138.278 291.28 140.292 293.745 141.634 296.818C142.976 299.891 143.645 303.284 143.642 306.996C143.64 310.388 143.254 313.075 142.484 315.059C141.715 317.042 140.913 318.738 140.08 320.145C139.183 321.552 138.734 322.64 138.734 323.408C138.733 324.048 139.085 324.528 139.789 324.849C140.492 325.105 141.548 325.33 142.956 325.523L142.954 327.731C141.611 327.602 140.043 327.537 138.251 327.535C136.395 327.47 133.995 327.436 131.051 327.434C128.107 327.368 124.395 327.333 119.915 327.33L119.916 325.122C123.757 324.869 127.341 324.167 130.67 323.018C133.999 321.804 136.688 319.982 138.738 317.552C140.724 315.057 141.719 311.762 141.722 307.666C141.723 305.554 141.309 303.57 140.478 301.713C139.584 299.792 138.209 298.223 136.354 297.006C134.435 295.789 131.971 295.179 128.963 295.176C126.339 295.174 124.067 295.813 122.146 297.091C120.161 298.306 118.335 300.032 116.67 302.271C114.94 304.51 113.178 307.133 111.384 310.139C109.526 313.146 107.635 315.96 105.713 318.583C103.791 321.205 101.582 323.316 99.0846 324.914C96.5235 326.448 93.4509 327.214 89.8669 327.211C86.0909 327.208 82.9875 326.374 80.5568 324.708C78.0621 322.978 76.2398 320.737 75.0899 317.984C73.8759 315.231 73.2702 312.286 73.2725 309.15ZM142.351 237.775L140.431 237.773C140.304 235.597 140.05 233.965 139.666 232.877C139.283 231.725 138.516 230.956 137.364 230.571C136.212 230.186 134.485 229.993 132.181 229.991L84.5645 229.955C82.1965 229.953 80.4684 230.144 79.3801 230.527C78.2278 230.91 77.4592 231.678 77.0743 232.829C76.6255 233.917 76.3683 235.549 76.3026 237.725L74.3826 237.723C74.4478 236.251 74.5132 234.395 74.5789 232.156C74.6446 229.916 74.6782 227.708 74.6799 225.532C74.6818 223.036 74.6515 220.7 74.5892 218.524C74.5268 216.347 74.4642 214.587 74.4012 213.243L76.3212 213.245C76.3835 215.421 76.6383 217.085 77.0854 218.237C77.4686 219.326 78.236 220.062 79.3877 220.447C80.4754 220.832 82.2033 221.025 84.5713 221.027L132.187 221.063C134.491 221.065 136.219 220.874 137.372 220.491C138.524 220.108 139.293 219.373 139.677 218.285C140.062 217.133 140.32 215.469 140.449 213.293L142.369 213.295C142.24 214.639 142.175 216.399 142.173 218.575C142.108 220.751 142.074 223.087 142.072 225.583C142.07 227.759 142.101 229.967 142.163 232.207C142.161 234.447 142.224 236.303 142.351 237.775ZM142.32 277.903L140.4 277.901C140.274 275.725 140.019 274.093 139.636 273.005C139.253 271.852 138.485 271.084 137.334 270.699C136.182 270.314 134.454 270.121 132.15 270.119L84.5341 270.083C82.1661 270.081 80.438 270.272 79.3497 270.655C78.1974 271.038 77.4288 271.806 77.044 272.957C76.5951 274.045 76.3379 275.677 76.2722 277.853L74.3523 277.851C74.4173 276.507 74.4826 274.747 74.5482 272.571C74.6139 270.396 74.6477 268.06 74.6496 265.564C74.6513 263.324 74.6209 261.116 74.5586 258.939C74.4963 256.699 74.4337 254.843 74.3708 253.371L76.2908 253.373C76.3531 255.549 76.6079 257.213 77.055 258.365C77.4382 259.454 78.2056 260.19 79.3573 260.575C80.445 260.96 82.1729 261.153 84.5409 261.155L132.157 261.191C134.461 261.193 136.189 261.002 137.341 260.619C138.494 260.236 139.262 259.5 139.647 258.413C140.032 257.261 140.289 255.597 140.419 253.421L142.339 253.423C142.21 254.895 142.144 256.751 142.143 258.991C142.077 261.167 142.043 263.375 142.042 265.615C142.04 268.111 142.07 270.447 142.132 272.623C142.131 274.799 142.193 276.559 142.32 277.903ZM109.114 264.534L107.194 264.532L107.223 226.612L109.143 226.614L109.114 264.534ZM74.4436 157.291C76.6834 157.549 78.8592 157.742 80.9711 157.872C83.0831 157.938 84.683 157.971 85.771 157.972C86.923 157.973 88.0431 157.941 89.1311 157.878C90.1552 157.815 91.0192 157.752 91.7233 157.688L91.7216 159.896C87.9453 160.277 84.9689 160.819 82.7923 161.521C80.5518 162.224 78.9829 163.439 78.0856 165.166C77.1243 166.829 76.6424 169.357 76.6398 172.749L76.6338 180.717C76.6322 182.893 76.8229 184.557 77.206 185.709C77.5252 186.797 78.2606 187.534 79.4124 187.919C80.5001 188.304 82.2279 188.497 84.5959 188.499L132.212 188.535C134.516 188.537 136.244 188.346 137.396 187.963C138.549 187.58 139.317 186.844 139.702 185.757C140.023 184.605 140.184 182.941 140.186 180.765L140.191 173.757C140.194 169.725 139.652 166.685 138.566 164.636C137.48 162.523 135.721 161.018 133.289 160.12C130.794 159.158 127.435 158.451 123.211 158L123.213 155.792C124.941 155.985 127.244 156.083 130.124 156.085C131.34 156.086 133.101 156.056 135.405 155.993C137.645 155.867 139.981 155.677 142.413 155.423C142.283 158.687 142.216 162.366 142.213 166.462C142.146 170.558 142.111 174.206 142.108 177.406C142.107 178.814 142.106 180.638 142.104 182.878C142.103 185.054 142.133 187.422 142.195 189.982C142.193 192.542 142.223 195.134 142.285 197.759C142.283 200.383 142.313 202.879 142.375 205.247L140.455 205.245C140.329 203.069 140.074 201.437 139.691 200.349C139.308 199.196 138.54 198.428 137.389 198.043C136.237 197.658 134.509 197.465 132.205 197.463L84.5892 197.427C82.2212 197.425 80.493 197.616 79.4047 197.999C78.2524 198.382 77.4839 199.149 77.099 200.301C76.6502 201.389 76.3929 203.021 76.3273 205.197L74.4073 205.195C74.4731 202.827 74.539 200.331 74.6049 197.707C74.6069 195.083 74.6409 192.491 74.7068 189.931C74.7088 187.371 74.7106 185.003 74.7122 182.827C74.7139 180.587 74.7153 178.763 74.7164 177.355C74.7186 174.411 74.7211 171.083 74.7239 167.371C74.6628 163.595 74.5693 160.235 74.4436 157.291ZM107.263 173.828C107.263 173.828 107.583 173.828 108.223 173.829C108.863 173.829 109.183 173.829 109.183 173.829L109.17 191.397C109.17 191.397 108.85 191.397 108.21 191.397C107.57 191.396 107.25 191.396 107.25 191.396L107.263 173.828ZM94.5931 171.034C98.241 171.293 101.025 171.423 102.945 171.425C104.865 171.362 106.625 171.332 108.225 171.333C109.825 171.334 111.585 171.303 113.505 171.241C115.425 171.178 118.209 171.02 121.857 170.767L121.856 172.975C119.807 173.229 117.823 173.548 115.903 173.931C113.919 174.249 112.318 175.016 111.101 176.231C109.82 177.382 109.179 179.365 109.177 182.181L107.257 182.18C107.258 180.068 106.844 178.468 106.012 177.379C105.117 176.226 103.998 175.394 102.654 174.88C101.311 174.367 99.9349 174.014 98.527 173.821C97.0552 173.628 95.7433 173.435 94.5915 173.242L94.5931 171.034ZM73.4111 126.15C73.4136 122.95 73.7994 120.519 74.5687 118.855C75.2739 117.192 76.075 115.72 76.972 114.441C77.4206 113.673 77.773 113.066 78.0294 112.618C78.2218 112.106 78.3181 111.626 78.3185 111.178C78.319 110.538 77.9673 110.09 77.2635 109.833C76.5597 109.513 75.5039 109.256 74.0961 109.063L74.0977 106.855C75.1857 106.92 76.4976 107.017 78.0335 107.146C79.5055 107.211 81.4894 107.276 83.9854 107.342C86.4174 107.344 89.6494 107.347 93.6814 107.35L93.6797 109.558C90.6076 109.747 87.6631 110.417 84.8462 111.567C82.0293 112.717 79.724 114.411 77.9303 116.65C76.1367 118.824 75.2385 121.704 75.2358 125.288C75.2332 128.68 76.2551 131.496 78.3014 133.738C80.3477 135.916 83.0349 137.006 86.3629 137.008C89.2429 137.01 91.6755 136.276 93.6606 134.806C95.5817 133.335 97.3432 131.384 98.945 128.954C100.483 126.459 102.149 123.772 103.943 120.893C105.994 117.567 108.044 114.625 110.094 112.066C112.08 109.444 114.289 107.397 116.722 105.927C119.156 104.393 122.1 103.627 125.556 103.63C129.652 103.633 133.044 104.563 135.73 106.422C138.417 108.28 140.431 110.745 141.772 113.818C143.114 116.891 143.784 120.284 143.781 123.996C143.778 127.388 143.392 130.075 142.623 132.059C141.853 134.042 141.052 135.738 140.219 137.145C139.322 138.552 138.873 139.64 138.872 140.408C138.872 141.048 139.224 141.528 139.927 141.849C140.631 142.105 141.687 142.33 143.095 142.523L143.093 144.731C141.749 144.602 140.181 144.537 138.389 144.536C136.533 144.47 134.133 144.436 131.189 144.434C128.245 144.368 124.533 144.333 120.053 144.33L120.055 142.122C123.895 141.869 127.48 141.167 130.809 140.018C134.138 138.804 136.827 136.982 138.877 134.552C140.863 132.057 141.857 128.762 141.86 124.666C141.862 122.554 141.447 120.57 140.617 118.713C139.722 116.793 138.347 115.224 136.492 114.006C134.573 112.789 132.11 112.179 129.102 112.177C126.478 112.175 124.205 112.813 122.284 114.091C120.299 115.306 118.474 117.032 116.808 119.271C115.079 121.51 113.317 124.133 111.522 127.139C109.664 130.146 107.774 132.96 105.852 135.583C103.93 138.205 101.72 140.316 99.2232 141.914C96.662 143.448 93.5895 144.214 90.0055 144.211C86.2295 144.208 83.1261 143.374 80.6954 141.708C78.2007 139.978 76.3784 137.737 75.2284 134.984C74.0145 132.231 73.4088 129.286 73.4111 126.15Z" fill="white"/>
<line x1="141.47" y1="740.351" x2="141.992" y2="51.3342" stroke="white"/>
</svg>
