<svg width="205" height="938" viewBox="0 0 205 938" fill="none" xmlns="http://www.w3.org/2000/svg">
<path d="M74.032 690.588H75.952C76.016 692.764 76.272 694.428 76.72 695.58C77.104 696.668 77.872 697.404 79.024 697.788C80.112 698.172 81.84 698.364 84.208 698.364H131.824C134.128 698.364 135.856 698.172 137.008 697.788C138.16 697.404 138.928 696.668 139.312 695.58C139.696 694.428 139.952 692.764 140.08 690.588H142C141.872 692.06 141.808 693.916 141.808 696.156C141.744 698.332 141.712 700.54 141.712 702.78C141.712 705.276 141.744 707.612 141.808 709.788C141.808 711.964 141.872 713.724 142 715.068H140.08C139.952 712.892 139.696 711.26 139.312 710.172C138.928 709.02 138.16 708.252 137.008 707.868C135.856 707.484 134.128 707.292 131.824 707.292H79.024L79.312 706.908L142.48 730.428V731.964L80.176 756.156H130.864C133.168 756.156 134.992 755.964 136.336 755.58C137.616 755.132 138.544 754.3 139.12 753.084C139.632 751.804 139.952 749.916 140.08 747.42H142C141.872 748.572 141.808 750.076 141.808 751.932C141.744 753.788 141.712 755.548 141.712 757.212C141.712 758.812 141.744 760.444 141.808 762.108C141.808 763.708 141.872 765.052 142 766.14H140.08C139.952 763.964 139.632 762.332 139.12 761.244C138.544 760.092 137.616 759.324 136.336 758.94C134.992 758.556 133.168 758.364 130.864 758.364H84.208C81.84 758.364 80.112 758.556 79.024 758.94C77.872 759.324 77.104 760.092 76.72 761.244C76.272 762.332 76.016 763.964 75.952 766.14H74.032C74.096 765.052 74.16 763.708 74.224 762.108C74.288 760.444 74.32 758.812 74.32 757.212C74.32 755.804 74.288 754.364 74.224 752.892C74.16 751.356 74.096 750.076 74.032 749.052L131.44 727.26L132.208 728.892L74.32 707.292C74.32 706.524 74.32 705.788 74.32 705.084C74.32 704.316 74.32 703.548 74.32 702.78C74.32 700.54 74.288 698.332 74.224 696.156C74.16 693.916 74.096 692.06 74.032 690.588ZM73.552 655.539L133.936 632.115C136.368 631.155 138 630.067 138.832 628.851C139.6 627.635 140.016 626.515 140.08 625.491H142C141.872 626.771 141.808 628.339 141.808 630.195C141.744 632.051 141.712 633.907 141.712 635.763C141.712 638.259 141.744 640.595 141.808 642.771C141.808 644.947 141.872 646.707 142 648.051H140.08C139.952 644.787 139.408 642.707 138.448 641.811C137.424 640.915 135.28 641.107 132.016 642.387L84.304 660.243L83.056 658.707L126.448 675.411C129.008 676.435 131.184 677.043 132.976 677.235C134.704 677.427 136.08 677.267 137.104 676.755C138.128 676.179 138.864 675.251 139.312 673.971C139.76 672.627 140.016 670.963 140.08 668.979H142C141.872 670.771 141.808 672.659 141.808 674.643C141.744 676.563 141.712 678.355 141.712 680.019C141.712 681.619 141.744 682.995 141.808 684.147C141.808 685.235 141.872 686.259 142 687.219H140.08C139.76 685.939 139.024 684.627 137.872 683.283C136.656 681.939 134.608 680.723 131.728 679.635L73.552 657.075C73.552 656.819 73.552 656.563 73.552 656.307C73.552 656.051 73.552 655.795 73.552 655.539ZM114.352 643.827H116.272V672.435L114.352 671.475V643.827ZM74.032 599.441H75.952C76.016 601.617 76.272 603.281 76.72 604.433C77.104 605.521 77.872 606.257 79.024 606.641C80.112 607.025 81.84 607.217 84.208 607.217H131.824C134.128 607.217 135.856 607.025 137.008 606.641C138.16 606.257 138.928 605.521 139.312 604.433C139.696 603.281 139.952 601.617 140.08 599.441H142C141.872 600.913 141.808 602.769 141.808 605.009C141.744 607.185 141.712 609.393 141.712 611.633C141.712 614.129 141.744 616.465 141.808 618.641C141.808 620.817 141.872 622.577 142 623.921H140.08C139.952 621.745 139.696 620.113 139.312 619.025C138.928 617.873 138.16 617.105 137.008 616.721C135.856 616.337 134.128 616.145 131.824 616.145H84.208C81.84 616.145 80.112 616.337 79.024 616.721C77.872 617.105 77.104 617.873 76.72 619.025C76.272 620.113 76.016 621.745 75.952 623.921H74.032C74.096 622.577 74.16 620.817 74.224 618.641C74.288 616.465 74.32 614.129 74.32 611.633C74.32 609.393 74.288 607.185 74.224 605.009C74.16 602.769 74.096 600.913 74.032 599.441ZM74.032 531.102H75.952C76.016 533.278 76.336 534.942 76.912 536.094C77.488 537.182 78.416 537.918 79.696 538.302C80.976 538.686 82.8 538.878 85.168 538.878H142.48C142.48 539.262 142.48 539.646 142.48 540.03C142.48 540.35 142.48 540.702 142.48 541.086L80.176 581.406H130.864C133.168 581.406 134.992 581.214 136.336 580.83C137.616 580.382 138.544 579.55 139.12 578.334C139.632 577.054 139.952 575.166 140.08 572.67H142C141.872 573.822 141.808 575.326 141.808 577.182C141.744 579.038 141.712 580.798 141.712 582.462C141.712 584.062 141.744 585.694 141.808 587.358C141.808 588.958 141.872 590.302 142 591.39H140.08C139.952 589.214 139.632 587.582 139.12 586.494C138.544 585.342 137.616 584.574 136.336 584.19C134.992 583.806 133.168 583.614 130.864 583.614H84.208C81.84 583.614 80.112 583.806 79.024 584.19C77.872 584.574 77.104 585.342 76.72 586.494C76.272 587.582 76.016 589.214 75.952 591.39H74.032C74.096 590.302 74.16 588.958 74.224 587.358C74.288 585.694 74.32 584.062 74.32 582.462C74.32 581.054 74.288 579.71 74.224 578.43C74.16 577.15 74.096 575.998 74.032 574.974L126.256 541.086H85.168C82.8 541.086 80.976 541.31 79.696 541.758C78.416 542.142 77.488 542.974 76.912 544.254C76.336 545.47 76.016 547.326 75.952 549.822H74.032C74.096 548.67 74.16 547.166 74.224 545.31C74.288 543.39 74.32 541.63 74.32 540.03C74.32 538.366 74.288 536.734 74.224 535.134C74.16 533.47 74.096 532.126 74.032 531.102ZM74.032 473.494C74.032 462.038 76.912 453.526 82.672 447.958C88.368 442.39 96.56 439.606 107.248 439.606C114.224 439.606 120.336 440.982 125.584 443.734C130.768 446.422 134.8 450.358 137.68 455.542C140.56 460.726 142 466.998 142 474.358C142 475.318 141.968 476.598 141.904 478.198C141.84 479.798 141.808 481.462 141.808 483.19C141.744 484.854 141.712 486.39 141.712 487.798C141.712 490.038 141.744 492.246 141.808 494.422C141.808 496.598 141.872 498.358 142 499.702H140.08C139.952 497.526 139.696 495.894 139.312 494.806C138.928 493.654 138.16 492.886 137.008 492.502C135.856 492.118 134.128 491.926 131.824 491.926H84.208C81.84 491.926 80.112 492.118 79.024 492.502C77.872 492.886 77.104 493.654 76.72 494.806C76.272 495.894 76.016 497.526 75.952 499.702H74.032C74.096 498.358 74.192 496.598 74.32 494.422C74.384 492.246 74.384 490.102 74.32 487.99C74.256 485.75 74.192 483.222 74.128 480.406C74.064 477.59 74.032 475.286 74.032 473.494ZM75.76 475.894C75.76 478.838 76.304 480.758 77.392 481.654C78.48 482.55 80.688 482.998 84.016 482.998H132.016C135.344 482.998 137.552 482.55 138.64 481.654C139.728 480.694 140.272 478.742 140.272 475.798C140.272 468.822 139.024 463.414 136.528 459.574C133.968 455.734 130.256 453.046 125.392 451.51C120.528 449.974 114.608 449.206 107.632 449.206C100.464 449.206 94.544 450.07 89.872 451.798C85.136 453.462 81.616 456.246 79.312 460.15C76.944 463.99 75.76 469.238 75.76 475.894ZM74.032 406.691H75.952C76.016 408.867 76.272 410.531 76.72 411.683C77.104 412.771 77.872 413.507 79.024 413.891C80.112 414.275 81.84 414.467 84.208 414.467H131.824C134.128 414.467 135.856 414.275 137.008 413.891C138.16 413.507 138.928 412.771 139.312 411.683C139.696 410.531 139.952 408.867 140.08 406.691H142C141.872 408.163 141.808 410.019 141.808 412.259C141.744 414.435 141.712 416.643 141.712 418.883C141.712 421.379 141.744 423.715 141.808 425.891C141.808 428.067 141.872 429.827 142 431.171H140.08C139.952 428.995 139.696 427.363 139.312 426.275C138.928 425.123 138.16 424.355 137.008 423.971C135.856 423.587 134.128 423.395 131.824 423.395H84.208C81.84 423.395 80.112 423.587 79.024 423.971C77.872 424.355 77.104 425.123 76.72 426.275C76.272 427.363 76.016 428.995 75.952 431.171H74.032C74.096 429.827 74.16 428.067 74.224 425.891C74.288 423.715 74.32 421.379 74.32 418.883C74.32 416.643 74.288 414.435 74.224 412.259C74.16 410.019 74.096 408.163 74.032 406.691ZM72.976 378.096C72.976 374.896 73.36 372.464 74.128 370.8C74.832 369.136 75.632 367.664 76.528 366.384C76.976 365.616 77.328 365.008 77.584 364.56C77.776 364.048 77.872 363.568 77.872 363.12C77.872 362.48 77.52 362.032 76.816 361.776C76.112 361.456 75.056 361.2 73.648 361.008V358.8C74.736 358.864 76.048 358.96 77.584 359.088C79.056 359.152 81.04 359.216 83.536 359.28C85.968 359.28 89.2 359.28 93.232 359.28V361.488C90.16 361.68 87.216 362.352 84.4 363.504C81.584 364.656 79.28 366.352 77.488 368.592C75.696 370.768 74.8 373.648 74.8 377.232C74.8 380.624 75.824 383.44 77.872 385.68C79.92 387.856 82.608 388.944 85.936 388.944C88.816 388.944 91.248 388.208 93.232 386.736C95.152 385.264 96.912 383.312 98.512 380.88C100.048 378.384 101.712 375.696 103.504 372.816C105.552 369.488 107.6 366.544 109.648 363.984C111.632 361.36 113.84 359.312 116.272 357.84C118.704 356.304 121.648 355.536 125.104 355.536C129.2 355.536 132.592 356.464 135.28 358.32C137.968 360.176 139.984 362.64 141.328 365.712C142.672 368.784 143.344 372.176 143.344 375.888C143.344 379.28 142.96 381.968 142.192 383.952C141.424 385.936 140.624 387.632 139.792 389.04C138.896 390.448 138.448 391.536 138.448 392.304C138.448 392.944 138.8 393.424 139.504 393.744C140.208 394 141.264 394.224 142.672 394.416V396.624C141.328 396.496 139.76 396.432 137.968 396.432C136.112 396.368 133.712 396.336 130.768 396.336C127.824 396.272 124.112 396.24 119.632 396.24V394.032C123.472 393.776 127.056 393.072 130.384 391.92C133.712 390.704 136.4 388.88 138.448 386.448C140.432 383.952 141.424 380.656 141.424 376.56C141.424 374.448 141.008 372.464 140.176 370.608C139.28 368.688 137.904 367.12 136.048 365.904C134.128 364.688 131.664 364.08 128.656 364.08C126.032 364.08 123.76 364.72 121.84 366C119.856 367.216 118.032 368.944 116.368 371.184C114.64 373.424 112.88 376.048 111.088 379.056C109.232 382.064 107.344 384.88 105.424 387.504C103.504 390.128 101.296 392.24 98.8 393.84C96.24 395.376 93.168 396.144 89.584 396.144C85.808 396.144 82.704 395.312 80.272 393.648C77.776 391.92 75.952 389.68 74.8 386.928C73.584 384.176 72.976 381.232 72.976 378.096ZM142 306.668H140.08C139.952 304.492 139.696 302.86 139.312 301.772C138.928 300.62 138.16 299.852 137.008 299.468C135.856 299.084 134.128 298.892 131.824 298.892H84.208C81.84 298.892 80.112 299.084 79.024 299.468C77.872 299.852 77.104 300.62 76.72 301.772C76.272 302.86 76.016 304.492 75.952 306.668H74.032C74.096 305.196 74.16 303.34 74.224 301.1C74.288 298.86 74.32 296.652 74.32 294.476C74.32 291.98 74.288 289.644 74.224 287.468C74.16 285.292 74.096 283.532 74.032 282.188H75.952C76.016 284.364 76.272 286.028 76.72 287.18C77.104 288.268 77.872 289.004 79.024 289.388C80.112 289.772 81.84 289.964 84.208 289.964H131.824C134.128 289.964 135.856 289.772 137.008 289.388C138.16 289.004 138.928 288.268 139.312 287.18C139.696 286.028 139.952 284.364 140.08 282.188H142C141.872 283.532 141.808 285.292 141.808 287.468C141.744 289.644 141.712 291.98 141.712 294.476C141.712 296.652 141.744 298.86 141.808 301.1C141.808 303.34 141.872 305.196 142 306.668ZM142 346.796H140.08C139.952 344.62 139.696 342.988 139.312 341.9C138.928 340.748 138.16 339.98 137.008 339.596C135.856 339.212 134.128 339.02 131.824 339.02H84.208C81.84 339.02 80.112 339.212 79.024 339.596C77.872 339.98 77.104 340.748 76.72 341.9C76.272 342.988 76.016 344.62 75.952 346.796H74.032C74.096 345.452 74.16 343.692 74.224 341.516C74.288 339.34 74.32 337.004 74.32 334.508C74.32 332.268 74.288 330.06 74.224 327.884C74.16 325.644 74.096 323.788 74.032 322.316H75.952C76.016 324.492 76.272 326.156 76.72 327.308C77.104 328.396 77.872 329.132 79.024 329.516C80.112 329.9 81.84 330.092 84.208 330.092H131.824C134.128 330.092 135.856 329.9 137.008 329.516C138.16 329.132 138.928 328.396 139.312 327.308C139.696 326.156 139.952 324.492 140.08 322.316H142C141.872 323.788 141.808 325.644 141.808 327.884C141.744 330.06 141.712 332.268 141.712 334.508C141.712 337.004 141.744 339.34 141.808 341.516C141.808 343.692 141.872 345.452 142 346.796ZM108.784 333.452H106.864V295.532H108.784V333.452ZM74.032 226.236C76.272 226.492 78.448 226.684 80.56 226.812C82.672 226.876 84.272 226.908 85.36 226.908C86.512 226.908 87.632 226.876 88.72 226.812C89.744 226.748 90.608 226.684 91.312 226.62V228.828C87.536 229.212 84.56 229.756 82.384 230.46C80.144 231.164 78.576 232.38 77.68 234.108C76.72 235.772 76.24 238.3 76.24 241.692V249.66C76.24 251.836 76.432 253.5 76.816 254.652C77.136 255.74 77.872 256.476 79.024 256.86C80.112 257.244 81.84 257.436 84.208 257.436H131.824C134.128 257.436 135.856 257.244 137.008 256.86C138.16 256.476 138.928 255.74 139.312 254.652C139.632 253.5 139.792 251.836 139.792 249.66V242.652C139.792 238.62 139.248 235.58 138.16 233.532C137.072 231.42 135.312 229.916 132.88 229.02C130.384 228.06 127.024 227.356 122.8 226.908V224.7C124.528 224.892 126.832 224.988 129.712 224.988C130.928 224.988 132.688 224.956 134.992 224.892C137.232 224.764 139.568 224.572 142 224.316C141.872 227.58 141.808 231.26 141.808 235.356C141.744 239.452 141.712 243.1 141.712 246.3C141.712 247.708 141.712 249.532 141.712 251.772C141.712 253.948 141.744 256.316 141.808 258.876C141.808 261.436 141.84 264.028 141.904 266.652C141.904 269.276 141.936 271.772 142 274.14H140.08C139.952 271.964 139.696 270.332 139.312 269.244C138.928 268.092 138.16 267.324 137.008 266.94C135.856 266.556 134.128 266.364 131.824 266.364H84.208C81.84 266.364 80.112 266.556 79.024 266.94C77.872 267.324 77.104 268.092 76.72 269.244C76.272 270.332 76.016 271.964 75.952 274.14H74.032C74.096 271.772 74.16 269.276 74.224 266.652C74.224 264.028 74.256 261.436 74.32 258.876C74.32 256.316 74.32 253.948 74.32 251.772C74.32 249.532 74.32 247.708 74.32 246.3C74.32 243.356 74.32 240.028 74.32 236.316C74.256 232.54 74.16 229.18 74.032 226.236ZM106.864 242.748C106.864 242.748 107.184 242.748 107.824 242.748C108.464 242.748 108.784 242.748 108.784 242.748V260.316C108.784 260.316 108.464 260.316 107.824 260.316C107.184 260.316 106.864 260.316 106.864 260.316V242.748ZM94.192 239.964C97.84 240.22 100.624 240.348 102.544 240.348C104.464 240.284 106.224 240.252 107.824 240.252C109.424 240.252 111.184 240.22 113.104 240.156C115.024 240.092 117.808 239.932 121.456 239.676V241.884C119.408 242.14 117.424 242.46 115.504 242.844C113.52 243.164 111.92 243.932 110.704 245.148C109.424 246.3 108.784 248.284 108.784 251.1H106.864C106.864 248.988 106.448 247.388 105.616 246.3C104.72 245.148 103.6 244.316 102.256 243.804C100.912 243.292 99.536 242.94 98.128 242.748C96.656 242.556 95.344 242.364 94.192 242.172V239.964ZM72.976 195.096C72.976 191.896 73.36 189.464 74.128 187.8C74.832 186.136 75.632 184.664 76.528 183.384C76.976 182.616 77.328 182.008 77.584 181.56C77.776 181.048 77.872 180.568 77.872 180.12C77.872 179.48 77.52 179.032 76.816 178.776C76.112 178.456 75.056 178.2 73.648 178.008V175.8C74.736 175.864 76.048 175.96 77.584 176.088C79.056 176.152 81.04 176.216 83.536 176.28C85.968 176.28 89.2 176.28 93.232 176.28V178.488C90.16 178.68 87.216 179.352 84.4 180.504C81.584 181.656 79.28 183.352 77.488 185.592C75.696 187.768 74.8 190.648 74.8 194.232C74.8 197.624 75.824 200.44 77.872 202.68C79.92 204.856 82.608 205.944 85.936 205.944C88.816 205.944 91.248 205.208 93.232 203.736C95.152 202.264 96.912 200.312 98.512 197.88C100.048 195.384 101.712 192.696 103.504 189.816C105.552 186.488 107.6 183.544 109.648 180.984C111.632 178.36 113.84 176.312 116.272 174.84C118.704 173.304 121.648 172.536 125.104 172.536C129.2 172.536 132.592 173.464 135.28 175.32C137.968 177.176 139.984 179.64 141.328 182.712C142.672 185.784 143.344 189.176 143.344 192.888C143.344 196.28 142.96 198.968 142.192 200.952C141.424 202.936 140.624 204.632 139.792 206.04C138.896 207.448 138.448 208.536 138.448 209.304C138.448 209.944 138.8 210.424 139.504 210.744C140.208 211 141.264 211.224 142.672 211.416V213.624C141.328 213.496 139.76 213.432 137.968 213.432C136.112 213.368 133.712 213.336 130.768 213.336C127.824 213.272 124.112 213.24 119.632 213.24V211.032C123.472 210.776 127.056 210.072 130.384 208.92C133.712 207.704 136.4 205.88 138.448 203.448C140.432 200.952 141.424 197.656 141.424 193.56C141.424 191.448 141.008 189.464 140.176 187.608C139.28 185.688 137.904 184.12 136.048 182.904C134.128 181.688 131.664 181.08 128.656 181.08C126.032 181.08 123.76 181.72 121.84 183C119.856 184.216 118.032 185.944 116.368 188.184C114.64 190.424 112.88 193.048 111.088 196.056C109.232 199.064 107.344 201.88 105.424 204.504C103.504 207.128 101.296 209.24 98.8 210.84C96.24 212.376 93.168 213.144 89.584 213.144C85.808 213.144 82.704 212.312 80.272 210.648C77.776 208.92 75.952 206.68 74.8 203.928C73.584 201.176 72.976 198.232 72.976 195.096Z" fill="white"/>
<line x1="142.594" y1="867.937" x2="142.594" y2="60.0641" stroke="white"/>
</svg>
