<svg xmlns="http://www.w3.org/2000/svg" xmlns:xlink="http://www.w3.org/1999/xlink" xmlns:inkscape="http://www.inkscape.org/namespaces/inkscape" version="1.1" width="180.00014" height="180" viewBox="0 0 180.00014 180">
<g>
<path d="M1.898 131.855H3.566C3.777 133.211 4.176 134.43 4.766 135.512 5.352 136.598 6.09 137.516 6.977 138.266 7.863 139.02 8.887 139.598 10.047 140.004 11.207 140.41 12.461 140.613 13.816 140.613 16.043 140.613 17.805 140.09 19.098 139.035 20.395 137.98 21.039 136.551 21.039 134.746 21.039 133.992 20.91 133.301 20.656 132.668 20.398 132.035 19.973 131.426 19.371 130.84 18.766 130.254 17.961 129.676 16.953 129.102 15.945 128.531 14.676 127.914 13.141 127.25 11.273 126.438 9.707 125.656 8.445 124.902 7.18 124.152 6.172 123.367 5.418 122.555 4.668 121.742 4.133 120.879 3.816 119.961 3.5 119.043 3.344 117.996 3.344 116.824 3.344 115.438 3.59 114.16 4.086 112.984 4.586 111.812 5.285 110.797 6.188 109.938 7.09 109.082 8.156 108.418 9.391 107.953 10.625 107.484 11.98 107.25 13.457 107.25 14.781 107.25 16.012 107.461 17.156 107.883 18.301 108.305 19.461 108.98 20.633 109.914L21.809 107.883H22.844L23.344 116.867H21.672C20.949 114.398 19.902 112.562 18.535 111.359 17.164 110.156 15.516 109.555 13.59 109.555 11.754 109.555 10.297 110.004 9.211 110.91 8.129 111.812 7.586 113.031 7.586 114.566 7.586 115.289 7.707 115.941 7.949 116.527 8.188 117.117 8.578 117.672 9.121 118.199 9.664 118.727 10.371 119.254 11.242 119.781 12.117 120.305 13.199 120.855 14.492 121.426 16.723 122.422 18.57 123.348 20.047 124.203 21.52 125.062 22.695 125.918 23.566 126.777 24.441 127.637 25.059 128.539 25.418 129.484 25.781 130.434 25.961 131.496 25.961 132.668 25.961 134.172 25.66 135.559 25.059 136.824 24.457 138.086 23.613 139.172 22.531 140.074 21.445 140.977 20.152 141.676 18.648 142.172 17.141 142.668 15.488 142.918 13.68 142.918 11.965 142.918 10.422 142.676 9.055 142.195 7.684 141.715 6.293 140.902 4.879 139.758L3.613 141.969H2.574ZM1.898 131.855"/>
<path d="M49.754 129.871H37.699C37.188 131.105 36.75 132.195 36.391 133.145 36.027 134.09 35.734 134.91 35.508 135.602 35.285 136.297 35.125 136.883 35.035 137.363 34.945 137.844 34.898 138.238 34.898 138.539 34.898 139.379 35.172 139.961 35.711 140.277 36.254 140.594 37.156 140.75 38.422 140.75V142.465H27.449V140.75C28.145 140.66 28.738 140.539 29.234 140.391 29.73 140.238 30.168 140.027 30.543 139.758 30.918 139.484 31.25 139.133 31.535 138.695 31.82 138.258 32.102 137.727 32.371 137.094L44.109 107.703H46.051L56.297 133.164C56.992 134.852 57.594 136.199 58.105 137.207 58.617 138.215 59.113 138.973 59.594 139.484 60.074 139.996 60.594 140.328 61.152 140.48 61.707 140.629 62.379 140.703 63.16 140.703V142.465H48.441V140.703C50.039 140.703 51.137 140.555 51.738 140.254 52.34 139.953 52.641 139.457 52.641 138.762 52.641 138.461 52.625 138.184 52.598 137.93 52.566 137.672 52.516 137.395 52.438 137.094 52.363 136.793 52.258 136.453 52.121 136.078 51.988 135.703 51.812 135.258 51.602 134.746ZM38.602 127.613H48.895L43.883 114.293ZM38.602 127.613"/>
<path d="M93.906 142.918 72.461 114.656H72.281V133.934C72.281 135.438 72.332 136.625 72.438 137.5 72.543 138.371 72.754 139.051 73.07 139.531 73.387 140.012 73.836 140.328 74.426 140.48 75.012 140.629 75.785 140.719 76.75 140.75V142.465H64.605V140.75C65.66 140.719 66.508 140.621 67.156 140.457 67.805 140.293 68.309 139.984 68.668 139.531 69.031 139.078 69.27 138.441 69.391 137.613 69.512 136.785 69.57 135.664 69.57 134.25V115.918C69.57 114.656 69.52 113.609 69.414 112.781 69.309 111.953 69.098 111.301 68.781 110.816 68.465 110.336 68.008 110 67.406 109.801 66.801 109.605 66.02 109.48 65.059 109.418V107.703H73.996L93.723 134.023H93.906V116.234C93.906 114.762 93.852 113.578 93.746 112.691 93.641 111.805 93.43 111.121 93.113 110.637 92.801 110.156 92.348 109.84 91.762 109.691 91.176 109.539 90.398 109.449 89.438 109.418V107.703H101.578V109.418C100.527 109.449 99.676 109.547 99.027 109.711 98.383 109.879 97.879 110.188 97.516 110.637 97.156 111.09 96.914 111.734 96.793 112.578 96.676 113.422 96.613 114.535 96.613 115.918V142.918ZM93.906 142.918"/>
<path d="M109.84 114.566C109.84 113.512 109.789 112.66 109.684 112.016 109.578 111.367 109.367 110.855 109.051 110.48 108.734 110.102 108.277 109.848 107.676 109.711 107.074 109.578 106.289 109.48 105.328 109.418V107.703H119.051V109.418C118.09 109.449 117.312 109.539 116.727 109.691 116.141 109.84 115.688 110.109 115.371 110.504 115.055 110.895 114.844 111.434 114.738 112.129 114.633 112.82 114.582 113.738 114.582 114.883V142.555C114.582 146.348 113.785 149.238 112.188 151.223 110.594 153.211 108.262 154.203 105.191 154.203 103.113 154.203 101.453 153.805 100.203 153.008 98.953 152.211 98.328 151.148 98.328 149.824 98.328 149.043 98.531 148.449 98.938 148.043 99.344 147.637 99.91 147.43 100.633 147.43 101.203 147.43 101.664 147.574 102.008 147.859 102.355 148.145 102.754 148.711 103.207 149.555 103.719 150.516 104.16 151.172 104.535 151.516 104.914 151.863 105.402 152.035 106.004 152.035 107.238 152.035 108.188 151.375 108.848 150.051 109.512 148.727 109.84 146.844 109.84 144.406ZM109.84 114.566"/>
<path d="M132.82 133.934C132.82 135.438 132.883 136.625 133 137.5 133.121 138.371 133.355 139.051 133.703 139.531 134.047 140.012 134.543 140.328 135.191 140.48 135.84 140.629 136.688 140.719 137.742 140.75V142.465H123.113V140.75C124.168 140.719 125.02 140.621 125.664 140.457 126.312 140.293 126.816 139.984 127.176 139.531 127.539 139.078 127.781 138.441 127.898 137.613 128.02 136.785 128.082 135.664 128.082 134.25V115.918C128.082 114.656 128.027 113.609 127.922 112.781 127.816 111.953 127.605 111.301 127.289 110.816 126.973 110.336 126.516 110 125.914 109.801 125.312 109.605 124.527 109.48 123.566 109.418V107.703H137.289V109.418C136.328 109.449 135.551 109.57 134.965 109.781 134.379 109.992 133.926 110.344 133.609 110.84 133.297 111.336 133.086 112.023 132.98 112.895 132.875 113.77 132.82 114.883 132.82 116.234ZM132.82 133.934"/>
<path d="M148.758 106.215C147.371 107.266 146.387 108.266 145.801 109.215 145.215 110.164 144.922 111.211 144.922 112.352 145.312 112.113 145.762 111.992 146.273 111.992 146.965 111.992 147.531 112.227 147.969 112.691 148.402 113.16 148.621 113.754 148.621 114.477 148.621 115.289 148.344 115.949 147.785 116.461 147.23 116.973 146.484 117.23 145.551 117.23 143.414 117.23 142.348 115.812 142.348 112.984 142.348 112.234 142.438 111.531 142.617 110.887 142.797 110.238 143.09 109.605 143.496 108.988 143.906 108.371 144.453 107.742 145.145 107.094 145.84 106.445 146.695 105.746 147.719 104.996ZM148.758 106.215"/>
<path d="M154.039 131.855H155.711C155.922 133.211 156.32 134.43 156.906 135.512 157.492 136.598 158.23 137.516 159.117 138.266 160.008 139.02 161.031 139.598 162.188 140.004 163.348 140.41 164.605 140.613 165.957 140.613 168.184 140.613 169.945 140.09 171.238 139.035 172.535 137.98 173.18 136.551 173.18 134.746 173.18 133.992 173.055 133.301 172.797 132.668 172.543 132.035 172.113 131.426 171.512 130.84 170.91 130.254 170.105 129.676 169.098 129.102 168.086 128.531 166.816 127.914 165.281 127.25 163.414 126.438 161.852 125.656 160.586 124.902 159.32 124.152 158.312 123.367 157.562 122.555 156.809 121.742 156.273 120.879 155.957 119.961 155.641 119.043 155.484 117.996 155.484 116.824 155.484 115.438 155.734 114.16 156.23 112.984 156.727 111.812 157.426 110.797 158.328 109.938 159.23 109.082 160.301 108.418 161.535 107.953 162.77 107.484 164.121 107.25 165.598 107.25 166.922 107.25 168.156 107.461 169.301 107.883 170.441 108.305 171.602 108.98 172.773 109.914L173.949 107.883H174.988L175.484 116.867H173.812C173.09 114.398 172.047 112.562 170.676 111.359 169.305 110.156 167.66 109.555 165.73 109.555 163.895 109.555 162.438 110.004 161.352 110.91 160.27 111.812 159.727 113.031 159.727 114.566 159.727 115.289 159.848 115.941 160.09 116.527 160.328 117.117 160.723 117.672 161.262 118.199 161.805 118.727 162.512 119.254 163.383 119.781 164.258 120.305 165.34 120.855 166.637 121.426 168.863 122.422 170.715 123.348 172.188 124.203 173.664 125.062 174.836 125.918 175.711 126.777 176.582 127.637 177.199 128.539 177.562 129.484 177.922 130.434 178.102 131.496 178.102 132.668 178.102 134.172 177.801 135.559 177.199 136.824 176.598 138.086 175.754 139.172 174.672 140.074 173.586 140.977 172.293 141.676 170.789 142.172 169.285 142.668 167.629 142.918 165.824 142.918 164.105 142.918 162.566 142.676 161.195 142.195 159.824 141.715 158.434 140.902 157.02 139.758L155.754 141.969H154.715ZM154.039 131.855"/>
<path d="M63.602 28.211C64.02 28.363 64.293 28.094 64.586 27.809 64.77 27.633 64.961 27.449 65.195 27.355 66.234 26.926 67.645 27.66 68.562 28.211 68.617 28.25 68.699 28.305 68.793 28.371 69.32 28.738 70.324 29.438 70.453 29.262H70.484C71.043 28.023 67.934 26.531 66.969 26.191 65.684 25.703 64.461 25.457 63.602 26.742 63.297 27.23 62.93 27.965 63.602 28.211ZM109.434 29.312C109.539 29.52 110.562 28.809 111.098 28.434 111.195 28.367 111.277 28.312 111.332 28.273 112.25 27.723 113.66 26.988 114.699 27.414 114.934 27.512 115.125 27.695 115.309 27.871 115.602 28.156 115.875 28.422 116.289 28.273 116.965 28.027 116.598 27.293 116.289 26.805 115.434 25.52 114.211 25.762 112.926 26.254 111.961 26.594 108.852 28.086 109.406 29.324ZM116.414 29.805C116.383 29.617 116.336 29.465 116.32 29.309 116.309 29.191 116.316 29.07 116.363 28.938 116.637 28.938 116.984 29.273 117.148 29.559 117.496 30.148 117.625 30.938 117.684 31.719 118.062 31.547 118.457 31.398 118.863 31.281 119.461 31.109 120.074 30.996 120.695 30.941 121.285 30.891 121.863 30.945 122.449 30.996L122.473 31C122.586 31.012 122.586 31.168 122.473 31.176 121.852 31.234 121.23 31.328 120.613 31.426 120.02 31.52 119.43 31.66 118.863 31.867 118.469 32.016 118.09 32.191 117.723 32.387 117.734 32.75 117.742 33.102 117.762 33.414 117.766 33.535 117.773 33.66 117.777 33.789 118.207 33.738 118.645 33.723 119.074 33.754 119.773 33.809 120.422 33.969 120.953 34.445 121.02 34.512 120.949 34.645 120.855 34.609 120.57 34.5 120.277 34.469 119.977 34.414 119.648 34.355 119.309 34.332 118.977 34.336 118.578 34.344 118.18 34.375 117.785 34.43 117.785 35.469 117.695 36.66 117.445 37.781 117.754 37.781 118.066 37.789 118.375 37.797 118.742 37.812 119.082 37.895 119.441 37.957 119.578 37.98 119.531 38.168 119.414 38.18 119.02 38.215 118.633 38.281 118.234 38.297 117.926 38.309 117.613 38.328 117.305 38.352 117.027 39.34 116.605 40.242 115.984 40.883 115.617 41.25 114.883 41.984 114.27 41.738 113.973 41.609 113.867 41.473 113.879 41.336 113.898 41.023 114.523 40.711 114.82 40.453 115.426 39.926 115.891 39.211 116.227 38.441 115.766 38.488 115.305 38.555 114.848 38.641 114.625 38.68 114.406 38.727 114.188 38.777 113.641 39.691 112.914 40.676 112.23 41.125 111.805 41.066 111.402 41.008 111.09 40.949 110.766 40.91 110.504 40.871 110.262 40.832 109.332 40.691 108.758 40.602 106.688 40.949 105.387 41.168 102.629 42.391 100.379 43.52 99.285 44.07 101.055 39.328 101.695 38.137 103.992 34.004 107.047 31.762 111.086 29.742 111.934 29.293 113.449 28.75 114.719 28.77 115.645 29.508 115.867 31.152 115.785 32.828 115.867 32.773 115.949 32.719 116.031 32.66 116.273 32.5 116.516 32.344 116.766 32.199 116.652 31.387 116.516 30.586 116.414 29.805ZM59.43 35.441C59.918 34.996 60.598 34.762 61.234 34.629 61.523 34.57 61.812 34.527 62.109 34.5 62.117 35.496 62.207 36.621 62.438 37.684 61.973 37.777 61.523 37.934 61.121 38.184 60.996 38.258 61.078 38.48 61.223 38.426 61.648 38.262 62.09 38.152 62.535 38.09 62.812 39.156 63.25 40.137 63.91 40.82 64.277 41.188 65.012 41.922 65.625 41.68 65.859 41.574 65.973 41.469 66.008 41.363 66.086 41.109 65.719 40.855 65.387 40.625 65.27 40.543 65.156 40.465 65.074 40.395 64.375 39.785 63.867 38.926 63.52 38.02 64.047 38.02 64.578 38.074 65.102 38.164 65.273 38.195 65.441 38.227 65.605 38.266 66.164 39.293 67.043 40.59 67.855 41.125 68.281 41.066 68.684 41.008 69 40.949 69.32 40.91 69.586 40.871 69.824 40.832 70.758 40.691 71.328 40.602 73.398 40.949 74.703 41.168 77.461 42.391 79.707 43.523 80.801 44.07 79.035 39.328 78.391 38.137 76.094 34.004 73.039 31.762 69 29.742 68.152 29.293 66.637 28.75 65.371 28.77 64.746 29.266 64.441 30.18 64.332 31.234 63.988 31.145 63.645 31.062 63.297 31 63.363 30.574 63.426 30.156 63.48 29.742 63.484 29.711 63.492 29.68 63.496 29.648 63.508 29.605 63.516 29.566 63.523 29.523 63.574 29.301 63.613 29.109 63.527 28.875 63.258 28.875 62.91 29.215 62.746 29.496 62.516 29.887 62.383 30.363 62.301 30.867 61.613 30.812 60.926 30.844 60.23 31.004 60.082 31.035 60.113 31.289 60.266 31.27 60.934 31.195 61.594 31.223 62.242 31.316 62.164 32.023 62.164 32.754 62.133 33.352 62.121 33.559 62.113 33.777 62.109 34.004 61.961 34.023 61.809 34.043 61.656 34.07 60.969 34.188 60.223 34.418 59.672 34.859 59.512 34.988 59.375 35.137 59.25 35.301 59.168 35.41 59.34 35.523 59.43 35.441ZM82.09 42.414C82.211 39.535 81.477 37.332 79.52 35.066 78.234 33.535 76.824 32.312 75.297 31.027 74.5 30.355 72.871 29.117 71.684 28.824 72.719 29.07 73.637 29.117 74.629 29.289 74.852 29.375 75.078 29.461 75.301 29.551 76.289 29.961 77.203 30.539 78.066 31.176 79.832 32.484 81.391 34.148 82.508 36.047 82.949 36.797 83.328 37.59 83.594 38.422 83.863 39.258 83.988 40.129 84.02 41.004 84.02 41.02 84.043 41.02 84.043 41.004 84.156 38.914 83.332 36.805 82.223 35.07 81.055 33.238 79.477 31.672 77.695 30.43 77.367 30.199 77.027 29.984 76.68 29.785 79.004 30.512 81.164 31.805 82.762 33.66 83.707 34.75 85.133 36.93 85.477 38.73L85.57 38.711C85.816 40.031 85.758 41.422 85.273 42.719 84.965 43.453 84.23 45.047 83.129 44.801 82.152 44.555 82.027 43.148 82.09 42.414ZM94.621 42.781C94.137 41.484 94.078 40.09 94.324 38.773L94.418 38.789C94.762 36.992 96.188 34.812 97.133 33.719 99.027 31.516 101.723 30.109 104.539 29.496 104.688 29.461 104.832 29.43 104.969 29.402 104.273 29.762 103.602 30.16 102.953 30.59 101.281 31.695 99.754 33.055 98.523 34.637 97.102 36.465 96.094 38.719 96.141 41.066 96.141 41.082 96.164 41.082 96.164 41.066 96.273 36.926 99.277 33.609 102.504 31.352 103.387 30.734 104.309 30.176 105.266 29.684 105.586 29.52 105.91 29.363 106.234 29.203 106.801 29.137 107.332 29.086 108.07 28.918 107.094 29.184 105.359 30.445 104.598 31.09 103.07 32.375 101.66 33.598 100.375 35.129 98.418 37.395 97.684 39.598 97.805 42.473 97.867 43.207 97.742 44.617 96.766 44.863 95.664 45.105 94.926 43.516 94.621 42.781ZM76.52 34.762C75.418 33.414 74.07 32.312 72.723 31.273 72.66 31.223 72.543 31.145 72.395 31.047 71.832 30.684 70.863 30.055 71.012 29.621 71.195 29.129 72.297 29.68 72.602 29.863 75.234 31.273 77.559 34.211 79.211 36.598 80.031 37.797 81.48 40.258 81.227 41.992 81.203 42.129 81.176 42.262 81.133 42.387 81.008 42.406 80.82 42.352 80.621 42.23 79.703 41.617 79.336 39.414 78.906 38.496 78.234 37.211 77.375 35.863 76.52 34.762ZM100.68 36.66C99.863 37.859 98.414 40.316 98.668 42.055 98.691 42.191 98.719 42.32 98.762 42.445 98.887 42.469 99.074 42.414 99.273 42.289 100.191 41.68 100.559 39.477 100.988 38.555 101.66 37.27 102.52 35.926 103.375 34.824 104.477 33.477 105.824 32.375 107.172 31.332 107.234 31.281 107.352 31.207 107.5 31.109 108.062 30.746 109.031 30.117 108.883 29.68 108.699 29.191 107.598 29.742 107.293 29.926 104.66 31.332 102.336 34.273 100.68 36.66ZM89.586 36.754C91.066 34.688 89.246 31.891 87.828 30.293 87.094 31.395 86.785 32.926 87.582 33.965 88.156 34.766 89.426 35.73 89.586 36.754ZM91.629 38.234C91.555 37.375 91.977 36.305 92.41 35.215 93.172 33.297 93.953 31.324 92.051 30.355 92.051 30.547 92.062 30.738 92.07 30.926 92.098 31.387 92.121 31.836 91.988 32.312 91.746 33.109 91.195 33.781 90.949 34.578 90.582 35.863 90.887 37.027 91.5 38.25ZM73.988 34.145C72.973 34.117 72.273 33.918 71.316 33.352 70.996 33.172 70.68 32.949 70.359 32.727 69.398 32.055 68.41 31.363 67.215 31.641 68.574 29.715 72.871 32.504 73.988 34.145ZM109.535 32.785C110.496 32.113 111.484 31.426 112.68 31.699 111.32 29.773 107.023 32.566 105.906 34.207 106.922 34.18 107.621 33.977 108.578 33.414 108.898 33.23 109.215 33.012 109.535 32.785ZM63.219 31.508C63.578 31.594 63.938 31.695 64.293 31.805 64.266 32.516 64.312 33.266 64.402 33.98 64.332 33.973 64.262 33.969 64.195 33.965 63.777 33.93 63.355 33.922 62.938 33.938 62.984 33.129 63.098 32.312 63.219 31.508ZM92.602 41.863C92.969 39.598 93.52 37.699 94.742 35.742 94.84 35.586 95.043 35.316 95.293 34.992 96.02 34.047 97.113 32.613 96.887 32.066 96.457 31.027 94.008 33.844 93.703 34.395 92.508 36.266 92.547 38.535 92.586 40.715 92.594 41.102 92.602 41.484 92.602 41.863ZM86.176 42.43 86.293 42.438C86.352 40.828 88.254 39.574 88.254 37.762 88.254 36.535 87.703 35.617 86.91 34.699 86.48 34.273 85.867 33.965 85.562 33.414 85.316 32.984 85.316 32.434 85.133 31.945 83.859 33.262 84.914 34.785 85.844 36.125 86.254 36.719 86.637 37.273 86.785 37.762 87.145 38.902 86.855 39.797 86.566 40.695 86.387 41.25 86.203 41.809 86.176 42.43ZM116.625 33.984C116.73 33.961 116.844 33.938 116.953 33.914 116.93 33.578 116.898 33.242 116.859 32.906 116.645 33.047 116.43 33.195 116.223 33.348 116.051 33.473 115.883 33.598 115.715 33.727 115.695 33.898 115.676 34.074 115.652 34.242 115.973 34.141 116.297 34.055 116.625 33.984ZM72.539 34.457C74.086 34.855 76.074 35.984 77.094 37.445 76.012 36.801 74.078 36.867 73.215 36.781 72.113 36.66 70.949 36.293 69.969 35.68 68.93 35.129 67.766 33.477 66.664 33.477 68.316 33.168 70.949 33.965 72.539 34.457ZM113.23 33.539C111.578 33.23 108.945 34.027 107.355 34.516 105.809 34.914 103.82 36.043 102.801 37.508 103.883 36.863 105.816 36.93 106.68 36.844 107.781 36.719 108.945 36.352 109.926 35.742 110.965 35.191 112.129 33.539 113.23 33.539ZM62.914 34.461C63.168 34.457 63.422 34.465 63.676 34.477 63.945 34.488 64.211 34.516 64.48 34.547 64.645 35.625 64.887 36.578 65.078 37.125 65.129 37.277 65.215 37.484 65.328 37.723 65.273 37.715 65.219 37.703 65.164 37.695 64.59 37.613 63.973 37.555 63.363 37.578 63.293 37.355 63.227 37.129 63.176 36.902 62.965 36.105 62.898 35.285 62.914 34.461ZM116.469 37.824C116.566 37.539 116.652 37.25 116.719 36.965 116.926 36.188 116.992 35.387 116.98 34.582 116.883 34.605 116.789 34.629 116.691 34.652 116.301 34.758 115.91 34.879 115.531 35.02 115.371 35.898 115.172 36.66 115.008 37.125 114.938 37.34 114.797 37.66 114.605 38.031 114.652 38.023 114.699 38.016 114.746 38.008 115.32 37.926 115.895 37.863 116.469 37.824ZM68.992 37.086C69.914 37.355 70.746 37.336 71.598 37.312 72.098 37.301 72.609 37.285 73.152 37.332 75.754 37.449 77.613 38.711 78.676 40.949 77.68 39.805 76.176 39.836 74.672 39.867 73.941 39.883 73.211 39.898 72.539 39.781 69.602 39.293 67.336 37.82 65.625 35.375 66.727 36.047 67.766 36.719 68.992 37.086ZM105.223 39.93C105.953 39.945 106.68 39.961 107.355 39.844 110.203 39.367 112.418 37.973 114.109 35.66 113.934 35.746 113.762 35.836 113.586 35.918 113.332 36.043 113.105 36.191 112.863 36.332 112.824 36.355 112.785 36.355 112.754 36.34 112.164 36.664 111.562 36.953 110.902 37.148 109.977 37.418 109.148 37.398 108.297 37.375 107.793 37.363 107.285 37.348 106.742 37.395 104.141 37.512 102.281 38.773 101.219 41.012 102.215 39.867 103.719 39.898 105.223 39.93ZM89.051 42.598 89.07 42.609C89.387 42.09 90.105 41.598 90.336 41.25 91.113 40.082 90.781 39.117 90.395 37.988 90.355 37.875 90.316 37.758 90.277 37.637 90.129 37.965 89.883 38.34 89.625 38.738 88.816 39.984 87.848 41.484 89.051 42.598ZM91.477 39.477C91.465 39.992 91.293 40.551 91.078 41.02 90.977 41.242 90.859 41.449 90.734 41.656 90.664 41.77 90.594 41.879 90.523 41.988 90.469 42.07 90.398 42.23 90.312 42.273 90.223 42.32 90.164 42.414 90.102 42.492 90.016 42.605 89.918 42.707 89.832 42.82 89.66 43.047 89.5 43.289 89.363 43.543 89.113 44.004 88.918 44.496 88.773 44.996 88.48 46.012 88.496 47.082 88.812 48.09 88.984 48.637 89.234 49.18 89.473 49.703 89.719 50.242 89.875 50.82 89.938 51.41 89.941 51.445 89.992 51.461 90 51.422 90.109 50.879 90.062 50.348 89.98 49.805 89.891 49.23 89.691 48.688 89.539 48.125 89.262 47.117 89.254 46.078 89.551 45.078 89.695 44.59 89.91 44.125 90.133 43.668 90.25 43.43 90.359 43.168 90.453 42.922 90.492 42.805 90.586 42.691 90.609 42.574 90.637 42.453 90.68 42.375 90.738 42.27 90.984 41.836 91.234 41.414 91.41 40.949 91.5 40.711 91.562 40.469 91.594 40.219 91.625 39.996 91.574 39.742 91.531 39.52 91.531 39.504 91.527 39.484 91.523 39.469 91.52 39.441 91.477 39.449 91.477 39.477ZM93.691 39.953C93.699 39.914 93.645 39.902 93.637 39.938 93.566 40.164 93.457 40.375 93.395 40.605 93.332 40.848 93.27 41.098 93.238 41.344 93.207 41.602 93.148 41.859 93.137 42.121 93.125 42.391 93.164 42.637 93.211 42.902 93.297 43.391 93.605 43.844 93.867 44.254 94.148 44.699 94.484 45.113 94.863 45.473 95.219 45.809 95.656 46.059 96.047 46.352 96.441 46.645 96.777 46.98 97.078 47.375 97.59 48.039 97.609 48.875 97.625 49.688 97.629 49.867 97.633 50.051 97.645 50.227 97.645 50.25 97.676 50.254 97.68 50.234 97.883 49.316 98.031 48.371 97.754 47.449 97.469 46.504 96.594 45.793 95.84 45.223 95.066 44.641 94.422 43.824 94.004 42.949 93.898 42.738 93.805 42.547 93.75 42.316 93.691 42.062 93.594 41.816 93.57 41.555 93.551 41.301 93.57 41.031 93.598 40.777 93.625 40.504 93.629 40.219 93.691 39.953ZM64.34 46.82C63.727 47.859 62.379 45.598 62.258 44.922 62.188 44.52 62.344 43.824 62.512 43.09 62.734 42.105 62.973 41.047 62.707 40.512 63.016 40.824 63.406 41.09 63.602 41.434 63.961 41.969 63.895 42.309 63.809 42.758 63.777 42.93 63.742 43.113 63.727 43.332 63.699 43.668 63.871 44.242 64.051 44.832 64.297 45.633 64.551 46.469 64.336 46.82ZM115.555 46.883C116.168 47.922 117.516 45.656 117.637 44.984 117.707 44.582 117.551 43.887 117.383 43.148 117.16 42.168 116.922 41.109 117.184 40.574 116.879 40.887 116.488 41.152 116.289 41.496 115.934 42.027 116 42.367 116.086 42.82 116.117 42.988 116.152 43.176 116.168 43.391 116.195 43.73 116.02 44.301 115.84 44.895 115.598 45.691 115.344 46.531 115.555 46.883ZM70.277 41.434C68.379 41.801 67.094 43.574 65.379 43.941 66.957 47.062 68.594 45.285 70.199 43.539 71.336 42.305 72.453 41.09 73.523 41.633L73.562 41.547C72.66 41.117 71.172 41.277 70.277 41.434ZM106.332 41.609 106.371 41.691C107.441 41.152 108.559 42.367 109.695 43.602 111.301 45.344 112.938 47.125 114.516 44.004 112.801 43.637 111.516 41.863 109.617 41.496 108.723 41.336 107.234 41.18 106.332 41.609ZM82.539 45.543C82.457 45.52 82.387 45.457 82.309 45.426 82.227 45.391 82.141 45.379 82.055 45.359 81.902 45.328 81.75 45.281 81.602 45.23 81.293 45.125 80.992 44.988 80.699 44.844 79.992 44.496 79.293 44.141 78.594 43.785 77.188 43.074 75.633 42.34 74.031 42.328 73.445 42.32 72.82 42.453 72.32 42.758 71.727 43.117 71.324 43.668 70.992 44.266 70.965 44.316 71.035 44.352 71.066 44.309 71.535 43.684 72.191 43.199 72.953 43 73.617 42.824 74.324 42.922 74.977 43.105 76.523 43.535 77.887 44.445 79.355 45.078 79.891 45.309 80.426 45.516 80.992 45.648 81.242 45.707 81.496 45.742 81.75 45.762 81.859 45.77 81.965 45.77 82.07 45.766 82.098 45.766 82.121 45.766 82.148 45.762 82.203 45.758 82.262 45.754 82.316 45.766 82.332 45.766 82.344 45.77 82.355 45.77 82.406 45.781 82.453 45.793 82.508 45.789 82.645 45.781 82.68 45.586 82.539 45.543ZM100.184 45.34C99.922 45.363 99.66 45.348 99.402 45.328 99.379 45.328 99.355 45.324 99.336 45.324 99.25 45.316 99.211 45.453 99.289 45.488 100.695 46.125 102.312 45.301 103.523 44.602L103.57 44.574C104.887 43.812 106.223 43.039 107.797 43.094 108.105 43.105 108.43 43.129 108.734 43.18 108.844 43.199 108.91 43.062 108.812 43 108.055 42.535 107.258 42.422 106.387 42.543 105.617 42.652 104.871 43.047 104.203 43.43 102.934 44.164 101.691 45.195 100.184 45.34ZM62.312 49.184C62.785 48.773 62.465 48.027 62.129 47.23 61.938 46.777 61.738 46.309 61.672 45.879 61.488 44.859 61.488 43.82 61.535 42.766 60.887 45.449 59.141 48.586 58.273 50.012 59.102 50.102 61.672 49.828 62.312 49.184ZM117.582 49.246C118.223 49.887 120.793 50.164 121.621 50.07 120.754 48.648 119.008 45.512 118.359 42.832 118.406 43.883 118.41 44.922 118.223 45.938 118.156 46.371 117.957 46.84 117.766 47.289 117.43 48.086 117.113 48.836 117.582 49.246ZM87.293 43.27C86.926 43.391 86.438 44.555 86.129 44.922 85.09 45.965 83.805 46.637 83.254 48.043 82.434 50.215 83.551 52.23 84.602 54.129 84.883 54.641 85.16 55.141 85.395 55.637 86.238 57.266 86.445 58.762 86.02 60.391 86.121 60.828 86.285 61.238 86.535 61.332 86.535 61.32 86.535 61.309 86.535 61.297 86.543 60.75 86.586 60.207 86.641 59.664 86.66 59.473 86.68 59.281 86.703 59.09 86.801 58.16 86.902 57.227 86.859 56.293 86.836 55.707 86.77 55.117 86.609 54.555 86.465 54.051 86.25 53.574 86.02 53.105 85.582 52.219 85 51.332 84.781 50.352 84.777 50.324 84.812 50.316 84.824 50.34 85.023 50.859 85.242 51.363 85.512 51.852 85.762 52.305 86.031 52.746 86.277 53.199 86.523 53.652 86.75 54.121 86.902 54.613 87.059 55.129 87.137 55.68 87.172 56.215 87.23 57.23 87.133 58.242 87.031 59.25 87.02 59.363 87.008 59.477 86.996 59.59 86.941 60.148 86.895 60.703 86.883 61.266 86.988 61.195 87.105 61.074 87.23 60.898 87.598 60.348 87.723 59.062 87.781 58.391 88.027 56.492 87.66 54.289 86.988 52.512 86.816 52.121 86.609 51.766 86.406 51.414 85.879 50.508 85.391 49.668 85.703 48.473 86.129 47.004 87.539 46.086 87.906 44.676 88.09 44.066 88.027 42.965 87.293 43.27ZM92.602 43.332C91.867 43.023 91.805 44.125 91.988 44.738 92.355 46.148 93.766 47.066 94.191 48.535 94.504 49.727 94.016 50.57 93.488 51.477 93.285 51.824 93.078 52.184 92.906 52.574 92.234 54.348 91.867 56.555 92.113 58.449 92.172 59.125 92.297 60.41 92.664 60.961 92.875 61.254 93.059 61.387 93.211 61.406 93.105 60.82 93.027 60.227 92.961 59.645 92.824 58.453 92.793 57.246 93.02 56.062 93.227 54.98 93.723 54.051 94.258 53.102 94.773 52.188 95.273 51.277 95.52 50.246 95.527 50.215 95.574 50.23 95.57 50.262 95.395 51.258 94.934 52.18 94.473 53.07 93.977 54.031 93.504 54.984 93.316 56.059 93.109 57.242 93.137 58.457 93.281 59.645 93.344 60.184 93.445 60.723 93.535 61.262 93.691 61.086 93.801 60.773 93.871 60.453 93.449 58.82 93.656 57.328 94.5 55.695 94.734 55.203 95.012 54.699 95.293 54.191 96.344 52.293 97.461 50.277 96.641 48.105 96.09 46.699 94.805 46.023 93.766 44.984 93.457 44.617 92.969 43.453 92.602 43.332ZM85.977 43.48C85.789 43.645 85.621 43.812 85.426 43.965 85.234 44.113 85.055 44.273 84.867 44.43 84.676 44.59 84.461 44.719 84.27 44.887 84.086 45.039 83.926 45.219 83.766 45.395 83.164 46.051 82.652 46.797 82.297 47.617 81.965 48.391 81.77 49.238 81.836 50.082 81.906 50.957 82.258 51.781 82.711 52.52 82.723 52.539 82.75 52.527 82.742 52.508 82.203 50.996 82.273 49.238 82.945 47.777 83.297 47.008 83.801 46.324 84.375 45.707 84.523 45.543 84.68 45.391 84.82 45.223 84.984 45.035 85.109 44.816 85.262 44.617 85.531 44.27 85.793 43.887 86.008 43.504 86.02 43.484 85.992 43.465 85.977 43.48ZM90.609 48.945C89.941 47.406 89.234 45.785 90.461 44.434 91.254 45.047 91.562 46.637 92.051 47.492 92.785 48.777 92.969 49.391 92.418 50.738 92.398 50.812 92.359 50.957 92.312 51.141 92.09 52.02 91.629 53.848 91.379 53.797 91 53.703 90.93 53.129 90.977 52.531 91.746 51.559 91.195 50.281 90.609 48.945ZM106.801 44.453C105.793 44.363 104.902 44.82 104.055 45.305 103.652 45.531 103.246 45.762 102.82 45.941 102.355 46.133 101.875 46.184 101.391 46.293 101.285 46.316 101.297 46.461 101.391 46.492 101.832 46.641 102.344 46.551 102.785 46.43 103.254 46.297 103.688 46.082 104.117 45.852 104.992 45.379 105.848 44.879 106.832 44.656 106.949 44.629 106.91 44.461 106.801 44.453ZM88.379 44.469C88.27 44.738 88.141 45.004 88.039 45.277 87.988 45.414 87.926 45.543 87.859 45.672 87.785 45.812 87.672 45.918 87.586 46.047 87.422 46.285 87.23 46.5 87.082 46.746 86.938 46.992 86.793 47.242 86.672 47.504 86.406 48.07 86.293 48.711 86.379 49.332 86.469 49.973 86.648 50.598 86.816 51.215 86.828 51.254 86.883 51.238 86.879 51.199 86.773 50.559 86.695 49.906 86.801 49.262 86.848 48.965 86.895 48.668 86.98 48.379 87.062 48.102 87.199 47.836 87.332 47.582 87.586 47.102 87.926 46.645 88.066 46.109 88.133 45.852 88.242 45.609 88.309 45.352 88.387 45.059 88.426 44.773 88.418 44.473 88.418 44.449 88.387 44.445 88.379 44.469ZM75.109 44.957C75.75 45.121 76.32 45.453 76.918 45.723 77.434 45.961 77.953 46.18 78.508 46.309 79.121 46.449 79.805 46.398 80.422 46.309 80.516 46.297 80.516 46.137 80.422 46.121 80.086 46.07 79.746 46.012 79.414 45.93 79.129 45.859 78.848 45.754 78.566 45.664 77.988 45.488 77.438 45.238 76.875 45.016 76.559 44.891 76.238 44.734 75.914 44.648 75.609 44.57 75.293 44.508 74.98 44.484 74.367 44.438 73.711 44.508 73.199 44.867 73.121 44.922 73.188 45.035 73.27 44.992 73.848 44.699 74.508 44.805 75.109 44.957ZM70.484 45.512C71.688 44.996 72.969 45.844 73.207 46.934 72.703 49.648 66.059 49.156 64.977 47.164 66.789 48.004 67.781 47.293 68.914 46.48 69.391 46.141 69.891 45.781 70.484 45.512ZM106.688 46.992C106.926 45.906 108.207 45.059 109.41 45.57 110.004 45.844 110.504 46.199 110.977 46.543 112.113 47.355 113.105 48.066 114.918 47.227 113.836 49.219 107.191 49.711 106.688 46.992ZM91.812 45.703C91.961 46.117 92.152 46.523 92.371 46.902 92.609 47.312 92.844 47.711 92.973 48.168 93.18 48.895 93.121 49.645 92.945 50.367 92.852 50.762 92.719 51.145 92.582 51.52 92.434 51.926 92.301 52.328 92.172 52.742 91.949 53.473 91.672 54.195 91.598 54.961 91.594 54.988 91.641 54.992 91.645 54.969 91.82 54.172 92.191 53.422 92.617 52.73 93.062 52 93.43 51.211 93.668 50.387 93.895 49.602 93.934 48.723 93.543 47.988 93.094 47.137 92.289 46.535 91.84 45.691 91.832 45.676 91.809 45.688 91.812 45.703ZM99.066 47.66C99.832 47.691 100.598 47.812 101.352 47.902 102.477 48.039 103.602 48.203 104.719 48.402 105.684 48.574 106.625 48.789 107.539 49.133 107.676 49.184 107.812 49.238 107.945 49.293 105.254 47.785 100.828 46.461 99.078 47.652 99.074 47.656 99.07 47.66 99.066 47.66ZM87.918 47.289C86.863 48.395 87.5 51.348 87.887 52.453 88.805 55.082 89.355 57.473 88.867 60.227 88.852 60.34 88.836 60.461 88.816 60.582 88.629 61.891 88.391 63.57 89.172 64.633 90.766 62.062 90.949 59.367 90.703 56.43 90.461 53.738 89.113 51.41 88.316 48.84 88.164 48.41 87.992 47.852 87.918 47.289ZM72.176 49.328C73.781 48.703 75.477 48.461 77.168 48.207 78.023 48.078 78.883 47.984 79.746 47.891 80.121 47.852 80.496 47.809 80.871 47.789 80.867 47.785 80.859 47.781 80.855 47.777 79.121 46.594 74.762 47.883 72.062 49.375 72.102 49.359 72.141 49.344 72.176 49.328ZM98.781 50.07C98.824 50.07 98.863 50.07 98.902 50.07 99.238 50.059 99.574 50.055 99.91 50.055H100C100.66 50.055 101.316 50.055 101.973 50.09 103.199 50.152 104.402 50.359 105.527 50.863 105.828 51 106.148 51.137 106.383 51.379 106.402 51.398 106.426 51.422 106.445 51.449 106.859 51.395 107.297 51.344 107.73 51.281 108.234 51.207 108.723 51.113 109.16 50.973 108.621 50.656 108.059 50.371 107.484 50.125 105.922 49.457 104.23 49.188 102.57 48.867 101.738 48.707 100.91 48.523 100.078 48.359 99.602 48.266 99.125 48.164 98.648 48.07 98.23 48.656 98.363 49.375 98.781 50.07ZM72.199 51.402C72.574 51.457 72.949 51.5 73.312 51.547 73.336 51.539 73.363 51.535 73.387 51.527 73.441 51.512 73.492 51.496 73.547 51.477H73.551C73.594 51.457 73.637 51.441 73.68 51.426 73.895 51.355 74.113 51.285 74.328 51.227 75.137 50.996 75.961 50.84 76.77 50.617 77.555 50.398 78.348 50.203 79.16 50.125 79.574 50.09 79.984 50.098 80.395 50.168 80.602 50.199 80.844 50.246 81.059 50.332 81.547 49.594 81.73 48.816 81.281 48.191 81.027 48.242 80.777 48.301 80.523 48.348 80.016 48.441 79.508 48.543 79 48.648 77.957 48.863 76.91 49.074 75.863 49.277 75.039 49.441 74.219 49.602 73.422 49.867 72.492 50.18 71.602 50.594 70.758 51.09 71.195 51.234 71.691 51.328 72.199 51.402ZM101.406 50.977C100.812 50.91 100.219 50.867 99.621 50.816 99.523 50.809 99.422 50.797 99.324 50.785 99.832 51.355 100.484 51.859 101.105 52.191L101.188 52.152C102.223 52.43 103.359 52.137 104.445 51.855 104.586 51.816 104.727 51.781 104.867 51.746 104.84 51.734 104.812 51.723 104.781 51.715 103.695 51.316 102.555 51.098 101.406 50.977ZM79.094 51.039C78.363 51.117 77.648 51.297 76.934 51.449 76.246 51.594 75.555 51.695 74.863 51.82 75.07 51.871 75.277 51.922 75.488 51.977 76.57 52.258 77.711 52.551 78.742 52.273L78.824 52.316C79.391 52.012 79.98 51.566 80.469 51.062 80.363 51.035 80.258 51.016 80.148 51.012 79.801 50.988 79.441 51.004 79.094 51.039ZM115.473 51.176C115.617 51.289 115.754 51.402 115.895 51.52 116.645 52.16 117.32 52.879 117.949 53.637 118.195 53.938 118.441 54.242 118.68 54.555 121.117 54.922 123.484 55.812 124.922 57.777 124.25 52.645 120.02 50.969 115.473 51.176ZM114.148 51.289C114.203 51.281 114.258 51.277 114.312 51.27 114.98 51.777 115.582 52.387 116.129 53.016 116.516 53.465 116.891 53.926 117.246 54.395 116.395 54.332 115.555 54.32 114.766 54.336 113.996 53.406 113.121 52.559 112.176 51.805 112.938 51.543 113.621 51.344 114.148 51.289ZM63.32 52.27C62.406 53.145 61.586 54.141 60.844 55.18 58.691 55.613 56.664 56.512 55.383 58.266 56.012 53.449 59.777 51.68 63.996 51.648 63.762 51.855 63.535 52.062 63.32 52.27ZM62.32 54.953C63.18 54.859 64.035 54.82 64.855 54.82 65.34 54.195 65.867 53.605 66.441 53.059 66.793 52.727 67.152 52.402 67.527 52.098 67.008 51.934 66.539 51.82 66.156 51.777 65.84 51.738 65.523 51.711 65.207 51.688 64.352 52.414 63.602 53.289 62.93 54.145 62.727 54.402 62.523 54.676 62.32 54.953ZM113.309 54.387C113.18 54.242 113.051 54.102 112.918 53.965 112.32 53.344 111.676 52.758 110.996 52.227 109.207 52.883 107.203 53.637 105.758 53.656 107.168 54.727 110.762 54.527 112.953 54.406 113.078 54.398 113.195 54.391 113.309 54.387ZM67.816 53.273C67.277 53.77 66.762 54.297 66.301 54.844 66.586 54.852 66.945 54.871 67.352 54.895 69.543 55.016 73.137 55.215 74.547 54.148 72.941 54.125 70.645 53.191 68.715 52.5 68.406 52.746 68.105 53.004 67.816 53.273ZM82.457 53.309C81.844 52.879 81.234 52.637 80.863 53.492 80.668 53.961 80.848 54.305 81.098 54.652 81.535 54.438 81.984 54.242 82.445 54.098 82.695 54.02 82.949 53.961 83.207 53.938 82.977 53.688 82.723 53.473 82.457 53.309ZM97.438 53.371C97.273 53.469 97.113 53.59 96.961 53.727 97.34 53.742 97.723 53.84 98.066 53.973 98.387 54.098 98.691 54.246 98.984 54.414 99.117 54.16 99.168 53.891 99.027 53.555 98.66 52.695 98.051 52.941 97.438 53.371ZM95.625 56.41C95.809 56.387 96.047 56.426 96.137 56.445 96.633 56.559 97.148 56.672 97.586 56.938 97.688 57 97.789 57.066 97.887 57.137 97.992 56.48 98.086 55.82 98.355 55.328 98.426 55.211 98.508 55.098 98.59 54.988 97.957 54.566 97.254 54.266 96.488 54.23 95.992 54.863 95.645 55.66 95.625 56.41ZM87.582 61.594C87.516 62.414 87.512 63.266 87.711 64.07 87.719 64.109 87.781 64.102 87.781 64.062 87.762 63.633 87.777 63.199 87.828 62.773 87.879 62.348 88.012 61.941 88.121 61.523 88.328 60.715 88.574 59.902 88.707 59.074 88.84 58.254 88.785 57.422 88.648 56.605 88.52 55.824 88.305 54.996 87.922 54.301 87.914 54.285 87.891 54.297 87.895 54.312 88.031 55.117 88.289 55.895 88.375 56.711 88.441 57.359 88.301 57.996 88.156 58.629 88.117 58.812 88.074 58.996 88.039 59.18 87.883 59.98 87.645 60.777 87.582 61.594ZM83.594 54.43C83.453 54.48 83.332 54.527 83.238 54.566 82.938 54.676 82.59 54.828 82.289 54.945 82.047 55.043 81.793 55.152 81.539 55.27 81.797 55.742 81.895 56.371 81.996 57 82.391 56.824 82.793 56.668 83.203 56.543 83.547 56.438 83.906 56.34 84.266 56.285 84.234 55.652 83.977 54.992 83.594 54.43ZM77.438 55.637C77.438 56.016 77.637 56.324 77.957 56.594 78.555 56.094 79.223 55.668 79.895 55.289 78.965 54.633 77.484 54.098 77.438 55.637ZM102.457 55.695C102.41 54.25 101.098 54.641 100.164 55.238 100.191 55.258 100.215 55.277 100.238 55.297 100.789 55.75 101.285 56.258 101.738 56.805 102.172 56.504 102.457 56.148 102.457 55.695ZM104.754 55.52C104.68 55.477 104.621 55.582 104.688 55.629 106.309 56.793 108.348 56.508 110.234 56.246 110.527 56.203 110.82 56.164 111.109 56.129 111.699 56.059 112.293 56 112.891 55.973 113.422 55.953 113.953 55.969 114.488 55.984L114.555 55.988C114.371 55.719 114.18 55.453 113.984 55.199 113.309 55.188 112.629 55.25 111.977 55.324 110.844 55.457 109.738 55.738 108.617 55.926 107.527 56.109 106.391 56.191 105.336 55.789 105.137 55.715 104.941 55.621 104.754 55.52ZM118.477 56.637C118.586 56.66 118.699 56.688 118.812 56.715 118.77 56.641 118.723 56.566 118.68 56.492 118.293 56.316 117.902 56.145 117.508 55.992 116.926 55.766 116.32 55.594 115.723 55.426 115.672 55.414 115.621 55.398 115.566 55.387 115.719 55.605 115.867 55.824 116.008 56.051 116.211 56.07 116.41 56.094 116.605 56.133 117.242 56.262 117.848 56.492 118.477 56.637ZM65.75 55.539C65.711 55.594 65.668 55.652 65.629 55.707 65.469 55.934 65.316 56.16 65.168 56.387 65.824 56.344 66.484 56.359 67.148 56.406 68.219 56.477 69.281 56.621 70.352 56.68 71.379 56.734 72.469 56.746 73.465 56.48 73.605 56.441 73.746 56.41 73.887 56.371 73.957 56.352 73.945 56.234 73.871 56.242 72.836 56.383 71.773 56.277 70.75 56.121 69.676 55.961 68.613 55.738 67.531 55.617 66.938 55.551 66.344 55.52 65.75 55.539ZM60.949 57.738C60.902 57.805 60.992 57.883 61.055 57.844 61.277 57.719 61.492 57.602 61.703 57.461 61.957 57.293 62.227 57.152 62.504 57.023 62.859 56.855 63.242 56.723 63.625 56.625 63.805 56.32 63.996 56.023 64.191 55.73 63.156 55.973 62.23 56.539 61.449 57.25 61.281 57.406 61.082 57.547 60.949 57.738ZM100.938 57.254C100.324 57.547 99.621 57.812 99.027 58.117 98.859 57.949 98.688 57.781 98.504 57.625 98.715 56.969 99.055 56.297 99.395 55.879 99.434 55.836 99.477 55.785 99.527 55.738 99.602 55.805 99.672 55.871 99.746 55.941 100.172 56.355 100.574 56.789 100.938 57.254ZM80.488 55.809C80.449 55.828 80.41 55.852 80.371 55.871 79.758 56.215 79.164 56.594 78.594 57.008 79.16 57.316 79.855 57.578 80.48 57.867 80.746 57.664 81.031 57.488 81.312 57.336 81.102 56.754 80.801 56.188 80.5 55.82 80.496 55.816 80.492 55.812 80.488 55.809ZM86.586 65.379C86.641 65.055 86.648 64.746 86.594 64.422 86.539 64.074 86.387 63.742 86.246 63.422 86.105 63.098 85.938 62.789 85.812 62.453 85.668 62.07 85.59 61.641 85.555 61.23 85.504 60.629 85.555 60.027 85.605 59.43 85.625 59.211 85.645 58.992 85.656 58.777 85.684 58.363 85.68 57.953 85.617 57.543 85.555 57.105 85.379 56.711 85.238 56.297 85.223 56.246 85.148 56.254 85.148 56.309 85.145 56.605 85.211 56.891 85.273 57.176 85.297 57.27 85.316 57.367 85.336 57.461 85.422 57.891 85.395 58.344 85.348 58.777 85.262 59.582 84.988 60.348 84.934 61.16 84.883 61.988 85.109 62.723 85.527 63.43 85.895 64.051 86.426 64.617 86.496 65.367 86.5 65.414 86.578 65.434 86.586 65.379ZM127.246 59.98C125.48 60.406 124 59.195 122.566 58.027 121.719 57.336 120.891 56.66 120.027 56.344 120.176 56.516 120.34 56.711 120.523 56.93 122.402 59.156 125.957 63.359 127.246 59.98ZM114.969 56.621C113.297 56.594 111.758 57.059 110.121 57.551 109.809 57.645 109.496 57.738 109.176 57.832 111.645 57.695 114.578 59.066 116.703 60.277 116.605 59.984 116.5 59.695 116.387 59.41 116.008 58.469 115.531 57.523 114.969 56.621ZM97.754 57.875C97.691 57.816 97.625 57.754 97.555 57.699 97.203 57.398 96.832 57.199 96.402 57.031 96.215 56.957 96.027 56.895 95.836 56.832 95.77 56.809 95.707 56.789 95.641 56.77 95.645 56.82 95.652 56.871 95.664 56.922 95.848 57.84 96.457 58.391 96.457 59.309 96.457 59.375 96.41 59.496 96.359 59.609 97.254 59.449 97.574 58.727 97.754 57.875ZM117.82 57.164C118.441 57.379 119.074 57.824 119.711 58.391 120.418 59.941 120.793 61.598 120.852 63.289 119.957 62.598 119.09 61.855 118.27 61.262 118.012 60.23 117.633 59.23 117.195 58.266 116.969 57.758 116.715 57.262 116.441 56.777 116.891 56.863 117.348 56.992 117.82 57.164ZM82.105 57.656C82.555 57.461 83.023 57.305 83.484 57.148 83.73 57.066 83.977 56.988 84.223 56.898 84.031 57.793 83.438 58.344 83.438 59.246 83.438 59.312 83.484 59.438 83.535 59.547 82.586 59.379 82.285 58.574 82.105 57.66ZM93.164 65.012C93.688 64.559 94.117 63.988 94.469 63.391 94.84 62.758 95.145 62.074 95.258 61.348 95.379 60.598 95.273 59.898 94.996 59.195 94.727 58.508 94.566 57.785 94.551 57.043 94.551 56.984 94.465 56.973 94.449 57.027 94.359 57.352 94.324 57.68 94.359 58.012 94.398 58.359 94.48 58.703 94.531 59.047 94.629 59.734 94.711 60.434 94.633 61.125 94.551 61.812 94.27 62.48 93.945 63.086 93.621 63.691 93.238 64.266 92.988 64.91 92.949 65.02 93.094 65.074 93.164 65.012ZM62.969 61.137C65.117 59.855 68.406 58.168 71.129 58.32 70.812 58.23 70.496 58.133 70.188 58.039 68.344 57.484 66.625 56.969 64.703 57.145 63.965 58.406 63.391 59.727 62.969 61.137ZM91.742 62C91.82 61.609 91.875 61.191 91.848 60.797 91.824 60.395 91.77 60 91.738 59.602 91.703 59.203 91.672 58.805 91.637 58.402 91.602 57.992 91.523 57.578 91.516 57.164 91.512 57.148 91.484 57.148 91.484 57.164 91.48 57.359 91.453 57.547 91.422 57.738 91.402 57.879 91.406 58.027 91.41 58.172 91.414 58.223 91.414 58.273 91.414 58.324 91.418 58.371 91.418 58.422 91.418 58.473 91.422 58.82 91.426 59.172 91.422 59.523 91.414 59.922 91.367 60.324 91.297 60.719 91.23 61.117 91.207 61.523 91.152 61.922 91.047 62.672 90.855 63.402 90.676 64.137 90.59 64.5 90.508 64.859 90.438 65.223 90.363 65.594 90.344 65.973 90.309 66.348 90.309 66.375 90.355 66.383 90.363 66.355 90.543 65.641 90.852 64.949 91.098 64.254 91.363 63.516 91.59 62.773 91.742 62ZM58.91 58.438C59.094 58.012 59.301 57.598 59.531 57.191 58.93 57.547 58.34 58.027 57.738 58.52 56.309 59.688 54.824 60.895 53.059 60.469 54.172 63.379 56.957 60.668 58.91 58.438ZM77.242 57.262C76.754 57.211 76.297 57.215 75.906 57.289 74.191 57.594 74.438 59.184 76.031 59.246 76.125 59.25 76.219 59.254 76.312 59.258 76.16 58.672 76.578 58.051 76.945 57.602 77.039 57.484 77.141 57.371 77.242 57.262ZM103.863 59.309C105.457 59.246 105.703 57.656 103.988 57.348 103.48 57.254 102.855 57.273 102.199 57.391 102.562 57.883 102.902 58.441 103.059 59.031 103.086 59.141 103.07 59.246 103.023 59.336 103.301 59.328 103.582 59.32 103.863 59.309ZM80.141 58.152C79.488 57.82 78.77 57.562 78.074 57.406 77.715 57.699 77.355 58.035 77.105 58.371 77.031 58.477 76.957 58.59 76.898 58.703 76.848 58.801 76.836 58.84 76.793 58.961 76.754 59.074 76.723 59.168 76.715 59.27 77.59 59.293 78.465 59.301 79.34 59.473 79.445 58.957 79.75 58.52 80.141 58.152ZM63.176 57.43C62.949 57.496 62.719 57.57 62.484 57.656 61.578 57.969 60.648 58.77 59.707 59.73 59.234 61.152 59.016 62.605 59.043 64.094 59.879 63.469 60.691 62.781 61.465 62.18 61.715 60.938 62.109 59.738 62.625 58.57 62.797 58.184 62.98 57.805 63.176 57.43ZM100.293 59.43C100.328 59.477 100.348 59.527 100.355 59.574 100.977 59.438 101.602 59.387 102.223 59.359 101.945 58.742 101.605 58.164 101.215 57.625 100.566 57.824 99.918 58.102 99.344 58.441 99.453 58.555 99.562 58.668 99.672 58.781 99.883 58.992 100.117 59.188 100.293 59.43ZM81.5 57.957C81.367 58.031 81.238 58.109 81.113 58.191 81.289 58.293 81.449 58.398 81.59 58.512 81.578 58.34 81.547 58.152 81.5 57.957ZM98.301 58.574C98.328 58.555 98.352 58.535 98.375 58.516 98.355 58.492 98.336 58.473 98.316 58.449 98.309 58.492 98.305 58.531 98.301 58.574ZM81.785 59.309 81.77 59.32C81.477 59.012 81.113 58.73 80.715 58.477 80.336 58.781 80.008 59.137 79.754 59.566 80.949 59.879 81.797 60.598 82.887 61.023 83.129 60.285 82.336 59.676 81.785 59.309ZM65.809 61.391C67.152 60.848 68.52 60.445 69.926 60.102 70.605 59.938 71.293 59.801 71.977 59.656 72.723 59.5 73.512 59.383 74.188 59.004 74.324 58.926 74.246 58.754 74.117 58.734 73.402 58.645 72.676 58.805 71.98 58.957 71.941 58.965 71.902 58.973 71.863 58.98 71.156 59.137 70.461 59.324 69.77 59.535 68.379 59.957 67.027 60.566 65.758 61.273 65.695 61.309 65.738 61.418 65.809 61.391ZM116.969 61.133C116.656 60.871 116.266 60.641 115.902 60.477 114.988 60.066 114.035 59.727 113.07 59.453 112.129 59.184 111.184 59.004 110.211 58.898 109.418 58.812 108.52 58.781 107.766 59.07 107.711 59.09 107.715 59.184 107.781 59.18 108.586 59.141 109.363 59.16 110.156 59.297 111.09 59.453 112.012 59.754 112.898 60.07 113.789 60.387 114.652 60.762 115.512 61.148 115.914 61.328 116.359 61.492 116.789 61.598 116.902 61.625 117.012 61.648 117.121 61.68 117.105 61.625 117.094 61.57 117.078 61.516 117.043 61.387 117.008 61.258 116.969 61.133ZM99.562 59.816C99.414 59.688 99.285 59.531 99.152 59.387 99 59.219 98.848 59.047 98.695 58.875 98.488 59.035 98.293 59.203 98.125 59.383L98.109 59.367C97.559 59.734 96.766 60.348 97.008 61.082 97.91 60.73 98.652 60.176 99.562 59.816ZM83.82 69C84.062 69.938 84.555 71.34 85.273 71.242 86.375 71.121 86.254 68.488 86.191 67.754 86.066 66.59 85.578 65.43 84.965 64.387 84.449 63.449 83.824 62.547 83.008 61.816 79.336 58.695 74.742 59.551 70.52 60.777 69.777 60.988 69.078 61.062 68.305 61.16L68.316 61.266C69.48 61.633 70.398 61.758 71.621 61.695 71.781 61.695 72.055 61.668 72.355 61.641 72.762 61.602 73.223 61.555 73.523 61.566L73.527 61.453C73.906 61.477 74.27 61.43 74.629 61.387 75 61.344 75.359 61.297 75.723 61.328 78.234 61.391 81.293 62.492 82.641 64.754 83.312 65.797 83.621 67.02 83.805 68.184 83.805 68.281 83.883 68.969 83.883 68.988V68.984ZM96.074 69.062C95.832 70 95.34 71.402 94.621 71.305 93.52 71.184 93.641 68.551 93.703 67.816 93.824 66.652 94.316 65.488 94.926 64.449 95.445 63.508 96.07 62.605 96.887 61.879 100.559 58.758 105.148 59.613 109.375 60.836 110.117 61.051 110.816 61.125 111.59 61.223L111.578 61.328C110.414 61.695 109.496 61.816 108.273 61.758 108.113 61.758 107.84 61.73 107.539 61.699 107.133 61.66 106.672 61.617 106.371 61.629L106.367 61.516C105.988 61.535 105.625 61.492 105.266 61.449 104.895 61.402 104.535 61.359 104.172 61.391 101.66 61.449 98.602 62.551 97.254 64.816 96.582 65.855 96.273 67.082 96.09 68.246 96.09 68.344 96.012 69.027 96.012 69.047ZM127.98 64.266C125.879 64.918 123.82 62.691 121.828 60.539L121.695 60.398C122.004 61.633 122.137 62.914 122.098 64.188 124.039 65.469 126.062 66.117 127.98 64.266ZM57.836 64.914C57.797 64.387 57.789 63.855 57.809 63.324 57.836 62.73 57.898 62.137 57.996 61.551 56.152 63.523 54.258 65.355 52.324 64.754 54.121 66.488 56.008 66.031 57.836 64.914ZM84.07 75.551C83.621 76.16 82.559 77.223 82.152 76.16 81.867 75.469 81.945 74.367 82.191 73.672 82.246 73.488 82.312 73.32 82.375 73.164 82.508 72.836 82.629 72.535 82.602 72.121L82.641 72.117C82.574 71.742 82.344 71.375 82.152 71.102 81.734 70.492 81.492 70.523 80.867 70.594 80.824 70.602 80.773 70.605 80.723 70.613 79.578 70.734 78.398 70.734 77.215 70.57 75.379 70.324 73.457 69.512 72.641 67.797 72.043 66.531 72.043 65.484 72.039 64.277 72.039 64.18 72.039 64.078 72.039 63.98 72.039 63.801 72.035 63.617 72.031 63.43 71.609 63.305 71.195 63.148 70.785 62.984 70.66 62.93 70.531 62.875 70.402 62.82 69.867 62.594 69.336 62.348 68.805 62.125 68.926 62.152 69.078 62.195 69.238 62.246 69.73 62.395 70.352 62.582 70.75 62.469 71.227 62.48 71.695 62.41 72.156 62.34 72.238 62.328 72.32 62.316 72.398 62.305V62.285C74.602 61.879 77.582 61.918 79.578 63.02 80.711 63.645 81.684 64.594 82.34 65.715 82.34 65.703 82.34 65.691 82.34 65.68 82.348 65.605 82.438 65.578 82.48 65.641 82.633 65.875 82.723 66.211 82.738 66.516 82.844 66.77 82.934 67.031 83.008 67.297 83.172 67.988 83.129 68.816 83.254 69.551 83.336 70.164 83.66 70.773 83.703 71.387L83.66 71.508C84.152 71.793 84.844 72.121 84.969 72.734 85.172 73.633 84.602 74.855 84.07 75.551ZM99.172 70.672C100.316 70.797 101.496 70.797 102.68 70.633 104.52 70.387 106.438 69.57 107.25 67.855 107.852 66.59 107.852 65.543 107.855 64.336 107.855 64.062 107.855 63.785 107.863 63.488 108.414 63.328 108.957 63.113 109.492 62.883 110.027 62.652 110.559 62.41 111.086 62.184 110.965 62.211 110.816 62.258 110.656 62.309 110.164 62.457 109.539 62.645 109.145 62.527 108.664 62.543 108.199 62.473 107.738 62.402 107.656 62.391 107.574 62.375 107.492 62.363L107.496 62.348C105.293 61.941 102.312 61.98 100.316 63.082 98.684 63.98 97.375 65.562 96.887 67.355 96.723 68.051 96.766 68.875 96.641 69.613 96.559 70.223 96.234 70.836 96.191 71.449L96.234 71.57C95.742 71.855 95.051 72.184 94.926 72.793 94.723 73.691 95.293 74.918 95.824 75.609 96.273 76.223 97.336 77.285 97.742 76.223 98.027 75.527 97.949 74.426 97.703 73.734 97.648 73.547 97.582 73.383 97.52 73.227 97.387 72.898 97.266 72.594 97.293 72.184L97.254 72.176C97.32 71.805 97.551 71.438 97.742 71.164 98.16 70.555 98.402 70.582 99.023 70.656 99.07 70.66 99.121 70.668 99.172 70.672ZM62.387 66.688C62.871 66.656 63.352 66.508 63.727 66.285 64.645 65.672 65.258 64.879 66.051 64.145 66.785 63.469 67.582 63.285 68.438 62.918 68.328 62.262 67.766 62.148 67.156 62.141 66.191 63.004 63.762 62.754 62.562 63.043 62.547 63.047 62.527 63.051 62.508 63.055 62.414 63.621 62.352 64.184 62.336 64.789 62.32 65.191 62.336 65.594 62.355 65.996 62.359 66.129 62.363 66.258 62.371 66.391 62.371 66.488 62.379 66.59 62.387 66.688ZM116.168 66.348C116.543 66.566 117.023 66.719 117.508 66.75 117.535 66.398 117.547 66.047 117.562 65.695 117.594 64.984 117.57 64.27 117.484 63.562 117.469 63.434 117.449 63.281 117.426 63.125 117.395 63.117 117.363 63.109 117.332 63.102 116.133 62.816 113.703 63.066 112.738 62.203 112.129 62.211 111.566 62.324 111.453 62.98 112.312 63.348 113.109 63.531 113.844 64.203 114.637 64.938 115.25 65.734 116.168 66.348ZM82.312 66.496C81.512 64.152 78.078 62.355 75.906 62.449 75.738 62.457 75.578 62.473 75.426 62.5 74.867 62.941 74.387 63.504 74.141 64.18 73.926 64.77 73.879 65.434 73.996 66.047 74.227 67.254 74.996 68.402 76.082 68.996 77.336 69.68 79.074 69.59 80.352 69.023 80.973 68.75 81.57 68.348 81.926 67.758 82.102 67.469 82.223 67.156 82.27 66.82 82.285 66.719 82.301 66.605 82.312 66.496ZM76.273 69.797C77.785 70.246 79.957 70.371 81.387 69.637 81.691 69.453 82.254 68.824 82.391 67.871 82.078 68.418 81.574 68.852 81.023 69.148 79.773 69.824 78.164 70.016 76.793 69.648 75.293 69.242 74.137 68.051 73.789 66.535 73.617 65.793 73.617 64.98 73.91 64.266 74.203 63.547 74.656 62.965 75.281 62.527 73.73 62.852 73.215 64.164 73.215 65.797 73.215 67.59 74.562 69.266 76.273 69.797ZM99.723 69.977C100.914 70.301 102.238 70.117 103.371 69.664 104.484 69.223 105.523 68.441 106.09 67.367 106.676 66.262 106.574 64.891 105.883 63.852 105.621 63.461 105.25 63.145 104.867 62.879 104.68 62.75 104.48 62.633 104.277 62.535 106.09 62.734 106.68 64.109 106.68 65.855 106.68 67.652 105.332 69.328 103.621 69.855 102.109 70.305 99.938 70.434 98.508 69.699 98.258 69.547 97.832 69.094 97.613 68.406 98.082 69.176 98.82 69.727 99.723 69.977ZM97.539 66.879 97.492 66.863C98.023 64.637 100.988 62.832 103.227 62.547 103.23 62.547 103.23 62.547 103.234 62.551 104.133 62.84 105.117 63.352 105.594 64.211 105.895 64.754 106.074 65.352 106.047 65.98 105.996 67.129 105.199 68.078 104.281 68.688 102.422 69.926 99.227 70.383 97.746 68.309 97.656 68.184 97.574 68.051 97.504 67.91 97.461 67.602 97.465 67.254 97.539 66.879ZM80.406 73.281C82.383 73.406 81.512 71.062 79.52 71.238 77.07 71.422 74.008 70.875 72.418 68.672 71.734 67.715 71.797 64.465 70.668 63.508 70.559 63.465 70.453 63.418 70.344 63.371 70.246 63.332 70.152 63.289 70.055 63.246 69.758 63.219 69.41 63.305 68.992 63.531 65.93 65.305 70.461 68.973 71.93 69.891 74.57 71.441 77.477 72.492 80.402 73.281H80.406ZM99.488 73.363C102.418 72.574 105.324 71.512 107.965 69.965 109.434 69.043 113.965 65.371 110.902 63.594 108.883 62.5 108.457 64.73 108.086 66.652 107.918 67.523 107.762 68.332 107.477 68.734 105.883 70.938 102.824 71.492 100.375 71.309 98.383 71.133 97.512 73.488 99.488 73.363ZM60.297 65.551C60.496 66.055 60.855 66.367 61.285 66.539 61.242 66.301 61.211 66.062 61.195 65.816 61.148 65.066 61.168 64.316 61.25 63.566 60.52 64.004 59.953 64.668 60.297 65.551ZM118.582 66.609C119.023 66.441 119.395 66.125 119.598 65.613 119.938 64.742 119.391 64.086 118.68 63.648 118.715 64.055 118.734 64.457 118.734 64.859 118.734 65.422 118.711 65.984 118.598 66.535 118.59 66.562 118.586 66.586 118.582 66.609ZM78.266 65.398C78.234 64.949 78.129 64.035 77.781 63.652 77.207 64.93 77.285 66.16 77.738 67.484 78.168 66.906 78.293 66.09 78.266 65.398ZM102.113 63.711C101.766 64.094 101.66 65.008 101.629 65.461 101.602 66.152 101.727 66.969 102.156 67.547 102.609 66.223 102.688 64.992 102.113 63.711ZM92.418 70.633C93.336 69.223 93.152 66.102 91.867 65 91.273 66.012 91.312 66.793 91.371 67.902 91.375 67.934 91.375 67.969 91.379 68 91.379 68.797 90.902 69.59 90.883 70.289 91.391 70.41 91.895 70.578 92.367 70.762ZM87.215 68.551C87.102 69.238 87.039 70.09 87.637 70.547 88.098 70.289 88.59 70.156 89.098 70.117 88.895 69.715 88.938 69.168 88.98 68.625 89.008 68.254 89.039 67.891 88.988 67.57 88.867 67.02 88.07 64.512 87.52 65.551 87.453 65.727 87.48 66.074 87.508 66.402 87.527 66.652 87.547 66.887 87.52 67.02 87.461 67.57 87.277 68.062 87.215 68.551ZM68.379 69.438C68.492 69.656 68.621 69.871 68.758 70.078 69.277 70.863 69.934 71.543 70.641 72.16 71.395 72.82 72.215 73.41 73.102 73.875 73.957 74.324 74.863 74.68 75.82 74.84 76.266 74.914 76.715 74.934 77.172 74.914 77.336 74.91 77.504 74.895 77.668 74.875 77.957 74.625 78.266 74.402 78.602 74.184V74.164C76.793 73.98 74.43 72.43 72.906 71.551 71.684 70.875 70.398 70.203 69.355 69.223 68.438 68.43 67.645 66.836 66.664 66.227 65.941 68.031 67.113 70.664 67.852 72.324L67.887 72.406C68.457 73.648 69.582 75.535 70.973 76.824 72.48 77.035 73.988 77.312 75.461 77.703 75.707 77.492 75.906 77.246 76.086 76.98 75.871 76.977 75.66 76.957 75.453 76.926 74.773 76.824 74.117 76.594 73.512 76.273 72.367 75.664 71.289 74.754 70.555 73.676 70.543 73.66 70.57 73.641 70.586 73.656 71.414 74.641 72.43 75.449 73.598 75.996 74.195 76.277 74.84 76.508 75.496 76.586 75.773 76.621 76.043 76.625 76.316 76.617 76.57 76.203 76.812 75.777 77.133 75.406 77.156 75.375 77.184 75.348 77.211 75.316 75.355 75.492 73.441 74.617 71.965 73.57 70.48 72.516 69.148 71.105 68.359 69.449 68.352 69.438 68.371 69.426 68.379 69.438ZM112.043 72.383 112.004 72.469C111.484 73.602 110.508 75.27 109.281 76.531 107.75 76.746 106.23 77.031 104.73 77.41 104.559 77.453 104.383 77.5 104.207 77.547 104.086 77.418 103.977 77.281 103.875 77.137 104.031 77.098 104.188 77.059 104.34 77.02 105.078 76.836 105.789 76.586 106.484 76.281 107.77 75.715 109 74.891 109.617 73.59 109.633 73.559 109.586 73.527 109.566 73.562 108.875 74.746 107.543 75.5 106.301 75.992 105.648 76.25 104.965 76.441 104.281 76.605 104.062 76.66 103.84 76.699 103.613 76.738 103.371 76.344 103.141 75.934 102.848 75.57 103.121 75.492 103.395 75.406 103.664 75.32 104.469 75.07 105.262 74.766 106.02 74.402 107.559 73.668 108.965 72.684 109.984 71.293 110.004 71.266 109.957 71.242 109.938 71.266 108.898 72.629 107.457 73.586 105.875 74.207 105.117 74.504 104.344 74.734 103.566 74.961 103.23 75.059 102.891 75.148 102.551 75.238 102.176 74.859 101.754 74.551 101.293 74.242V74.227C103.102 74.039 105.465 72.488 106.988 71.613 108.211 70.938 109.496 70.266 110.535 69.285 111.453 68.488 112.25 66.898 113.23 66.285 113.953 68.09 112.781 70.727 112.043 72.383ZM57.727 67.266C56.871 67.203 56.441 66.715 55.707 66.531 55.129 68.039 57.141 69.562 59.012 69.914 58.672 69.055 58.395 68.172 58.191 67.273 58.035 67.281 57.883 67.281 57.727 67.266ZM124.188 66.59C123.453 66.777 123.023 67.266 122.168 67.328 122.004 67.344 121.84 67.34 121.672 67.332 121.535 67.938 121.359 68.535 121.148 69.125 121.047 69.414 120.938 69.703 120.82 69.988 122.707 69.66 124.77 68.117 124.188 66.59ZM59.434 67.148C59.441 67.191 59.453 67.23 59.461 67.273 59.605 67.852 59.777 68.422 59.98 68.98 60.105 69.324 60.223 69.629 60.355 69.938 61.184 69.777 61.793 69.23 61.828 68.148 61.699 67.98 61.605 67.797 61.555 67.586 61.535 67.508 61.512 67.43 61.488 67.355 60.949 67.039 60.242 67.09 59.625 67.145 59.559 67.145 59.496 67.145 59.434 67.148ZM118.066 68.039C118.039 69.199 118.629 69.793 119.457 69.98 119.824 69.137 120.148 68.289 120.391 67.355 120.402 67.305 120.414 67.258 120.426 67.207 120.375 67.207 120.324 67.203 120.27 67.203 119.629 67.148 118.895 67.098 118.352 67.453 118.293 67.668 118.203 67.863 118.066 68.039ZM115.004 67.57C115.07 68.992 114.023 73.461 111.273 76.293 111.988 76.219 112.703 76.164 113.418 76.117 114.316 75 115.023 73.684 115.367 72.289 115.371 72.273 115.391 72.281 115.387 72.293 115.25 73.086 115.031 73.824 114.703 74.559 114.461 75.098 114.148 75.613 113.797 76.094 114.402 76.059 115.012 76.035 115.617 76.016 115.992 75.164 116.266 74.27 116.512 73.375 116.535 73.301 116.641 73.332 116.629 73.406 116.5 74.297 116.273 75.172 115.934 76.008 116.301 75.996 116.668 75.988 117.031 75.984 119.188 72.605 116.98 69.656 115.004 67.57ZM89.91 67.695C89.477 67.801 89.379 69.422 89.484 70.105 89.773 70.105 90.066 70.137 90.355 70.184 90.449 69.523 90.695 67.523 89.91 67.695ZM64.301 73.766C64.469 74.633 64.73 75.5 65.129 76.293 64.461 76.266 63.793 76.246 63.125 76.234 61.223 72.957 63.371 70.098 65.301 68.062 65.238 69.445 66.23 73.723 68.82 76.559 68.258 76.5 67.695 76.453 67.133 76.41 67.027 76.285 66.93 76.156 66.832 76.023 65.848 74.699 65.18 73.223 64.723 71.641 64.711 71.609 64.664 71.621 64.672 71.656 64.969 73.254 65.633 74.848 66.566 76.18 66.613 76.246 66.66 76.312 66.711 76.379 66.266 76.352 65.816 76.324 65.371 76.305 64.906 75.512 64.586 74.645 64.352 73.754 64.344 73.719 64.297 73.734 64.301 73.766ZM50.91 77.227C51.184 77.207 51.457 77.207 51.727 77.188 52.215 77.148 52.707 77.156 53.195 77.117 53.711 77.078 54.227 77.043 54.742 77.016 56.758 76.895 58.773 76.77 60.793 76.75 60.824 76.75 60.859 76.746 60.887 76.742 60.844 76.531 60.941 76.289 61.184 76.234 61.215 76.227 61.246 76.223 61.281 76.223 61.609 76.223 61.934 76.223 62.262 76.223 62.16 76.051 62.059 75.875 61.953 75.691 60.387 72.984 58.16 69.145 54.621 70.754 57.246 70.293 58.855 73.023 60.488 75.922 58.57 75.941 56.648 76.012 54.742 76.227 54.254 76.281 53.766 76.344 53.273 76.406 52.758 76.477 52.254 76.594 51.742 76.684 51.234 76.766 50.727 76.883 50.219 76.98 49.711 77.078 49.203 77.188 48.695 77.301 48.621 77.316 48.637 77.441 48.711 77.434 49.199 77.383 49.691 77.34 50.18 77.293 50.422 77.27 50.668 77.25 50.91 77.227ZM131.305 77.055C130.824 76.949 130.344 76.848 129.863 76.754 129.621 76.707 129.379 76.66 129.137 76.617 128.871 76.566 128.605 76.496 128.34 76.449 127.859 76.367 127.383 76.25 126.898 76.188 126.379 76.117 125.859 76.051 125.34 75.992 123.383 75.766 121.41 75.695 119.441 75.676 121.023 72.871 122.617 70.305 125.168 70.754 121.629 69.145 119.402 72.984 117.836 75.691 117.781 75.789 117.727 75.883 117.672 75.98 118.02 75.977 118.371 75.977 118.719 75.98 118.754 75.98 118.785 75.98 118.816 75.988 119.059 76.043 119.156 76.285 119.113 76.496 119.141 76.504 119.176 76.508 119.207 76.508 121.227 76.527 123.242 76.652 125.258 76.77 125.746 76.797 126.234 76.832 126.727 76.867 127.242 76.906 127.758 76.902 128.273 76.941 128.52 76.961 128.762 76.957 129.008 76.977 129.25 76.996 129.496 77.02 129.742 77.043 130.258 77.09 130.773 77.133 131.289 77.188 131.363 77.195 131.379 77.07 131.305 77.055ZM86.625 71.93C86.625 71.938 86.625 71.945 86.625 71.957 86.629 71.969 86.629 71.984 86.629 71.996 86.629 72 86.629 72 86.629 72.004 86.629 72.008 86.629 72.02 86.629 72.023 86.629 72.027 86.629 72.035 86.629 72.035H86.648C86.648 72.035 86.648 72.027 86.648 72.023 86.648 72.02 86.648 72.008 86.648 72.004 86.648 71.992 86.652 71.977 86.652 71.961 86.652 71.949 86.652 71.941 86.652 71.93 86.652 71.93 86.652 71.926 86.652 71.922 86.652 71.914 86.652 71.906 86.652 71.898V71.895H86.648C86.645 71.879 86.617 71.883 86.617 71.898 86.617 71.902 86.621 71.906 86.621 71.91 86.621 71.914 86.621 71.918 86.621 71.922 86.621 71.926 86.625 71.93 86.625 71.93ZM86.176 80.91C86.996 78.75 87.203 76.043 85.746 74 85.695 74.102 85.645 74.203 85.594 74.305 84.977 75.516 84.449 76.555 85.074 77.855 85.527 78.824 86.145 79.793 86.176 80.91ZM95.664 77.734C95.965 76.973 95.184 75.883 94.555 75.008 94.426 74.824 94.301 74.648 94.191 74.488 93.434 75.625 93.492 78.246 93.809 79.852 94.27 79.074 95.273 78.656 95.664 77.734ZM85.176 83.758 85.008 83.688C84.863 83.688 84.043 82.359 83.988 81.957 83.941 81.586 83.973 81.25 84.004 80.922 84.059 80.387 84.109 79.871 83.805 79.262 83.254 78.16 82.152 78.223 81.418 77.426 80.805 76.754 80.742 75.652 80.438 74.855 79.445 75.598 78.027 76.812 77.027 78.164 77.742 78.395 78.453 78.656 79.129 78.977 79.797 79.293 80.469 79.648 81.051 80.105 81.188 80.141 81.301 80.238 81.355 80.363 81.363 80.371 81.371 80.379 81.379 80.383 81.438 80.438 81.434 80.512 81.395 80.566 81.383 80.809 81.188 81 80.941 81 80.691 81 80.488 80.797 80.488 80.547 80.488 80.434 80.531 80.332 80.598 80.25 79.766 79.781 78.887 79.406 77.984 79.094 78.012 79.137 78.027 79.184 78.027 79.238 78.027 79.375 77.918 79.484 77.781 79.484 77.645 79.484 77.535 79.375 77.535 79.238 77.535 79.125 77.609 79.031 77.707 79 77.367 78.887 77.02 78.785 76.668 78.688 76.18 79.457 75.855 80.262 75.844 81.039 75.863 81.043 75.883 81.043 75.898 81.047 77.027 81.164 78.148 81.312 79.266 81.504 79.281 81.504 79.297 81.5 79.312 81.5 79.359 81.5 79.402 81.512 79.438 81.535 79.871 81.609 80.305 81.695 80.738 81.785 80.789 81.762 80.844 81.746 80.902 81.746 81.02 81.746 81.121 81.797 81.191 81.883 81.566 81.965 81.938 82.055 82.312 82.148 82.309 82.137 82.309 82.121 82.309 82.105 82.309 81.887 82.488 81.707 82.711 81.707 82.93 81.707 83.109 81.887 83.109 82.105 83.109 82.203 83.074 82.293 83.016 82.363 83.059 82.43 83.004 82.539 82.902 82.52 82.863 82.512 82.824 82.508 82.785 82.5 82.762 82.504 82.734 82.508 82.711 82.508 82.633 82.508 82.562 82.484 82.5 82.449 82.086 82.375 81.668 82.309 81.25 82.242 81.199 82.383 81.062 82.484 80.902 82.484 80.703 82.484 80.543 82.328 80.535 82.129 80.164 82.074 79.793 82.023 79.422 81.969 79.391 81.984 79.352 81.996 79.312 81.996 79.246 81.996 79.188 81.969 79.145 81.93 79.117 81.926 79.094 81.922 79.066 81.918 78.012 81.773 76.949 81.652 75.887 81.562 76.004 82.242 76.332 82.844 76.785 83.352 77.434 83.336 78.082 83.336 78.727 83.352 79.574 83.375 80.422 83.395 81.27 83.438 81.281 83.312 81.387 83.215 81.516 83.215 81.652 83.215 81.762 83.324 81.762 83.461V83.465C81.879 83.473 81.992 83.48 82.109 83.488 82.309 83.5 82.309 83.785 82.109 83.797 81.238 83.859 80.367 83.863 79.496 83.867 79.211 83.867 78.93 83.867 78.648 83.871 78.219 83.875 77.789 83.883 77.359 83.891 78.59 84.883 80.34 85.395 81.723 85.324 82.812 85.266 84.602 84.777 85.176 83.758ZM97.891 83.242C99.043 83.16 100.199 83.129 101.352 83.105 102.02 83.094 102.688 83.09 103.355 83.109 103.738 82.594 103.992 81.996 104.043 81.324 102.871 81.426 101.703 81.559 100.539 81.723 100.551 81.75 100.555 81.777 100.555 81.809 100.555 81.945 100.445 82.055 100.309 82.055 100.172 82.055 100.059 81.945 100.059 81.809 100.059 81.801 100.062 81.797 100.062 81.789 99.711 81.84 99.359 81.895 99.008 81.949 99.059 82.012 99.086 82.09 99.086 82.176 99.086 82.379 98.922 82.547 98.715 82.547 98.512 82.547 98.348 82.379 98.348 82.176 98.348 82.133 98.355 82.094 98.367 82.055 98.012 82.113 97.66 82.176 97.305 82.238 97.273 82.426 97.109 82.566 96.91 82.566 96.691 82.566 96.512 82.391 96.512 82.168 96.512 81.945 96.691 81.766 96.91 81.766 97.078 81.766 97.219 81.867 97.281 82.012 98.492 81.684 99.715 81.414 100.957 81.219 101.977 81.055 103.004 80.918 104.031 80.809 103.949 80.043 103.582 79.262 103.07 78.516 101.637 78.934 100.246 79.477 98.969 80.262 99.07 80.344 99.133 80.469 99.133 80.609 99.133 80.859 98.93 81.062 98.68 81.062 98.426 81.062 98.223 80.859 98.223 80.609 98.223 80.383 98.387 80.199 98.602 80.16 98.605 80.152 98.613 80.145 98.621 80.141 99.398 79.426 100.391 78.918 101.359 78.516 101.801 78.332 102.25 78.164 102.703 78.008 101.719 76.746 100.395 75.621 99.457 74.918 99.152 75.711 99.09 76.816 98.477 77.488 97.742 78.285 96.641 78.223 96.09 79.324 95.785 79.934 95.836 80.445 95.891 80.984 95.922 81.309 95.953 81.645 95.906 82.016 95.848 82.426 95.008 83.789 94.879 83.746L94.719 83.82C95.293 84.84 97.082 85.328 98.172 85.383 99.688 85.465 101.641 84.844 102.871 83.656 102.34 83.641 101.809 83.633 101.273 83.625 100.969 83.621 100.66 83.621 100.355 83.617 99.684 83.617 99.016 83.613 98.344 83.582 98.32 83.688 98.223 83.77 98.105 83.77 97.977 83.77 97.871 83.672 97.859 83.547 97.691 83.508 97.703 83.258 97.891 83.242ZM124.469 82.5C125.531 82.836 126.582 83.227 127.59 83.703 128.535 84.152 129.469 84.672 130.223 85.406 130.414 85.594 130.172 85.883 129.949 85.766 129.473 85.512 129.008 85.25 128.535 84.992 124.617 82.871 120.184 82.012 115.793 81.512 115.953 81.492 116.082 81.324 116.082 81.168 116.082 80.996 115.969 80.883 115.82 80.84 115.793 80.832 115.766 80.828 115.738 80.824 113.457 80.598 111.172 80.469 108.883 80.504 108.543 80.113 108.148 79.832 107.754 79.586 111.406 80.805 114.723 80.43 117.168 76.816 117.684 76.809 118.203 76.812 118.719 76.816 118.75 76.816 118.777 76.812 118.805 76.809 118.117 78.023 117.406 79.211 116.598 80.152 116.406 80.379 116.207 80.613 116 80.859 116.594 80.922 117.184 80.992 117.773 81.07 120.035 81.371 122.293 81.812 124.469 82.5ZM116.105 77.168C116.215 77.055 116.316 76.938 116.414 76.824 116.125 76.828 115.84 76.836 115.551 76.844 115.379 77.172 115.191 77.492 114.98 77.797 115.504 77.605 115.906 77.387 116.105 77.168ZM115.203 76.852C114.5 76.875 113.801 76.906 113.102 76.949 112.688 77.41 112.242 77.836 111.758 78.223 111.684 78.281 111.609 78.344 111.535 78.402 112.543 78.387 113.594 78.215 114.441 77.969 114.727 77.621 114.98 77.246 115.203 76.852ZM111.613 77.906C111.973 77.613 112.32 77.305 112.648 76.977 111.859 77.027 111.07 77.094 110.289 77.176 109.891 77.48 109.461 77.75 109.008 77.977 109.547 78.23 110.227 78.359 110.953 78.395 111.18 78.238 111.402 78.078 111.613 77.906ZM62.793 77.062C62.289 77.055 61.785 77.055 61.281 77.059 61.215 77.062 61.16 77.051 61.109 77.027 61.758 78.164 62.434 79.27 63.191 80.152 63.449 80.453 63.711 80.773 63.996 81.105 61.832 81.332 59.68 81.664 57.566 82.18 55.414 82.703 53.27 83.418 51.332 84.512 50.77 84.828 50.238 85.203 49.777 85.652 49.586 85.836 49.828 86.129 50.051 86.008 50.98 85.52 51.883 84.992 52.836 84.543 53.828 84.078 54.863 83.699 55.914 83.375 58.09 82.703 60.336 82.281 62.586 81.961 63.125 81.887 63.664 81.82 64.207 81.758 64.047 81.738 63.918 81.566 63.918 81.414 63.918 81.242 64.031 81.129 64.184 81.086 64.207 81.078 64.234 81.07 64.262 81.07 65.68 80.93 67.105 80.816 68.531 80.766 69.262 80.742 69.992 80.734 70.719 80.742 71.094 80.223 71.566 79.879 72.035 79.586 68.469 80.777 65.219 80.445 62.793 77.062ZM67.273 78.762C67.18 78.699 67.09 78.637 67.004 78.57 66.508 78.195 66.074 77.758 65.707 77.254 65.68 77.215 65.656 77.176 65.629 77.141 64.984 77.109 64.344 77.09 63.699 77.074 63.852 77.27 64.016 77.465 64.199 77.66 64.609 78.102 65.863 78.551 67.273 78.762ZM69.191 78.793C69.238 78.824 69.285 78.855 69.332 78.883 68.895 78.902 68.438 78.891 67.988 78.848 67.715 78.699 67.449 78.535 67.199 78.355 66.73 78.02 66.312 77.605 65.953 77.152 66.438 77.176 66.922 77.207 67.41 77.238 67.66 77.516 67.93 77.781 68.211 78.031 68.52 78.305 68.848 78.566 69.191 78.793ZM69.922 78.836C70.434 78.77 70.902 78.652 71.301 78.469 70.727 78.184 70.199 77.828 69.719 77.422 69.637 77.414 69.559 77.406 69.48 77.398 68.957 77.352 68.434 77.309 67.91 77.273 68.102 77.465 68.301 77.648 68.508 77.82 68.816 78.082 69.145 78.324 69.48 78.547 69.629 78.645 69.777 78.738 69.922 78.836ZM104.859 78.055C104.934 78.094 105.008 78.129 105.09 78.16 106.195 78.523 107.289 78.148 108.277 77.418 107.129 77.586 105.988 77.793 104.859 78.055ZM72.188 77.73C72.941 78.16 73.742 78.355 74.555 78.168 73.773 78 72.984 77.855 72.188 77.73ZM101.84 79.051C101.977 79.051 102.086 79.164 102.086 79.301 102.086 79.438 101.977 79.547 101.84 79.547 101.703 79.547 101.59 79.438 101.59 79.301 101.59 79.164 101.703 79.051 101.84 79.051ZM106.5 80.598C106.039 80.055 105.617 79.555 105.461 79.086 105.5 79.66 105.5 80.184 105.461 80.672 105.805 80.645 106.152 80.617 106.5 80.598ZM73.152 80.82C73.555 80.844 73.957 80.871 74.363 80.902 74.312 80.398 74.305 79.848 74.348 79.234 74.109 79.727 73.633 80.25 73.152 80.82ZM79.312 80.465C79.109 80.465 78.941 80.301 78.941 80.094 78.941 79.891 79.109 79.727 79.312 79.727 79.516 79.727 79.684 79.891 79.684 80.094 79.684 80.301 79.516 80.465 79.312 80.465ZM100.309 79.785C100.512 79.785 100.676 79.953 100.676 80.156 100.676 80.359 100.512 80.527 100.309 80.527 100.105 80.527 99.938 80.359 99.938 80.156 99.938 79.953 100.105 79.785 100.309 79.785ZM82.574 81.098C82.281 81.098 82.043 80.859 82.043 80.566 82.043 80.27 82.281 80.031 82.574 80.031 82.871 80.031 83.109 80.27 83.109 80.566 83.109 80.859 82.871 81.098 82.574 81.098ZM97.043 80.094C97.34 80.094 97.578 80.332 97.578 80.625 97.578 80.922 97.34 81.16 97.043 81.16 96.75 81.16 96.512 80.922 96.512 80.625 96.512 80.332 96.75 80.094 97.043 80.094ZM116.918 86.594C115.238 85.812 113.566 84.934 111.789 84.395 113.48 83.504 114.586 82.461 115.461 81.484 114.18 81.344 112.898 81.227 111.613 81.164 110.84 81.125 110.066 81.105 109.293 81.102 109.645 81.75 109.852 82.637 109.77 83.906 110.301 84.016 110.832 84.133 111.355 84.27 111.746 84.375 111.578 84.977 111.188 84.875 112.426 85.207 113.582 85.734 114.746 86.262 115.867 86.77 116.988 87.27 118.113 87.773 120.141 88.688 122.141 89.691 123.984 90.938 125.352 91.859 126.602 92.945 127.73 94.145 127.738 94.152 127.754 94.141 127.746 94.129 124.742 90.871 120.906 88.453 116.918 86.594ZM106.957 81.141C106.438 81.16 105.918 81.188 105.398 81.223 105.293 81.945 105.098 82.586 104.828 83.188 105.93 83.273 107.027 83.438 108.121 83.613H108.133C108.117 83.43 108.082 83.234 108.031 83.031 107.871 82.352 107.434 81.723 106.957 81.141ZM86.098 81.555C86.723 81.891 87.508 81.77 88.18 81.664 88.566 81.602 88.953 81.527 89.348 81.508 89.578 81.496 89.809 81.508 90.035 81.516 90.113 81.52 90.188 81.52 90.266 81.523 90.938 81.543 91.617 81.59 92.281 81.707 92.59 81.762 92.895 81.816 93.199 81.887 93.34 81.918 93.484 81.969 93.617 82.02 93.727 82.059 93.77 82.105 93.895 82.105 93.934 82.105 93.934 82.051 93.895 82.051 93.809 82.051 93.695 81.91 93.633 81.863 93.516 81.773 93.387 81.703 93.254 81.629 92.988 81.484 92.68 81.402 92.383 81.336 91.754 81.188 91.07 81.184 90.426 81.176 89.777 81.168 89.152 81.191 88.516 81.32 88.398 81.34 88.285 81.367 88.172 81.391 87.488 81.535 86.824 81.68 86.121 81.5 86.09 81.492 86.066 81.535 86.098 81.555ZM68.383 84.59C67.246 84.918 66.152 85.398 65.082 85.906 63.969 86.43 62.836 86.922 61.738 87.484 59.754 88.504 57.832 89.645 56.047 90.984 54.691 92.004 53.406 93.125 52.254 94.375 52.246 94.383 52.262 94.398 52.27 94.391 53.77 92.793 55.488 91.418 57.387 90.32 59.367 89.176 61.426 88.215 63.512 87.285 65.246 86.512 66.969 85.613 68.812 85.121 68.422 85.223 68.254 84.617 68.645 84.516 69.105 84.395 69.574 84.289 70.039 84.191 69.926 82.93 70.074 82.027 70.371 81.352 68.426 81.379 66.484 81.516 64.551 81.727 65.457 82.703 66.617 83.73 68.383 84.59ZM75.105 83.438C74.793 82.84 74.562 82.195 74.438 81.457 73.859 81.422 73.281 81.398 72.703 81.379 72.324 81.875 71.996 82.406 71.863 82.973 71.781 83.293 71.746 83.594 71.75 83.879 71.82 83.867 71.887 83.855 71.957 83.844 73 83.68 74.051 83.523 75.105 83.438ZM91.457 86.383C91.359 86.461 91.18 86.539 90.984 86.633 92.84 88.789 96.145 88.766 98.703 87.594 97.941 88.598 96.43 89.141 95.297 89.301 93.949 89.449 91.309 88.91 90.406 87.516 89.578 89.004 86.824 89.578 85.441 89.426 84.309 89.262 82.797 88.719 82.031 87.715 84.605 88.895 87.938 88.91 89.785 86.711 89.297 86.426 88.684 86.262 88.52 85.648 88.449 85.348 88.504 85.105 88.551 84.895 88.637 84.516 88.699 84.25 87.91 83.934 87.797 83.883 87.641 83.82 87.469 83.754 86.598 83.414 85.184 82.863 85.43 81.844 85.664 82.164 86.418 82.312 86.902 82.316 87.523 82.184 88.215 82.328 88.898 82.469 89.531 82.598 90.156 82.727 90.703 82.629 90.922 82.59 91.16 82.527 91.414 82.465 92.242 82.25 93.195 82.004 93.812 82.48L93.824 82.465C94.273 82.672 94.926 81.938 95.09 81.527 94.887 82.305 94.641 83.039 93.867 83.445 93.254 83.73 92.398 83.691 92.031 84.383 91.887 84.652 91.941 84.801 92.004 84.969 92.043 85.078 92.086 85.199 92.07 85.363 92.031 85.773 91.746 86.137 91.457 86.383ZM83.168 84.078C82.965 84.078 82.797 83.91 82.797 83.707 82.797 83.504 82.965 83.336 83.168 83.336 83.371 83.336 83.539 83.504 83.539 83.707 83.539 83.91 83.371 84.078 83.168 84.078ZM96.453 84.137C96.246 84.137 96.082 83.973 96.082 83.77 96.082 83.562 96.246 83.398 96.453 83.398 96.656 83.398 96.82 83.562 96.82 83.77 96.82 83.973 96.656 84.137 96.453 84.137ZM104.578 83.742C104.57 83.742 104.559 83.742 104.547 83.742 103.824 85.055 102.73 86.219 101.422 87.715 103.762 87.715 107.809 86.863 108.125 84.223 108.043 84.207 107.965 84.195 107.883 84.18 106.789 84 105.688 83.828 104.578 83.742ZM75.344 83.992C74.234 84.086 73.133 84.254 72.039 84.438 71.969 84.449 71.898 84.461 71.828 84.477 72.414 86.871 76.227 87.652 78.473 87.652 77.234 86.238 76.164 85.168 75.422 83.988 75.395 83.988 75.371 83.992 75.344 83.992ZM109.59 85.328C110.07 85.168 110.516 84.992 110.93 84.809 110.527 84.707 110.121 84.613 109.711 84.527 109.68 84.781 109.641 85.047 109.59 85.328ZM70.199 85.328C69.887 85.223 69.586 85.113 69.301 84.996 69.57 84.93 69.844 84.867 70.113 84.809 70.137 84.977 70.168 85.148 70.199 85.328ZM88.07 91.32C87.109 91.262 84.125 91.141 83.566 90.438L83.492 90.488C85.039 92.285 87.801 93.711 90.09 93.891 92.664 94.137 96.273 92.484 97.07 89.852 96.52 90.16 96.031 90.344 95.477 90.527 93.031 91.32 90.582 91.445 88.07 91.32ZM88.07 91.32" fill-rule="evenodd"/>
<path d="M26.359 26.359C34.664 18.055 44.199 11.629 54.969 7.074 66.117 2.359 77.793 0 90 0 102.207 0 113.883 2.359 125.031 7.074 135.801 11.629 145.336 18.055 153.641 26.359 161.945 34.664 168.371 44.199 172.926 54.969 177.641 66.117 180 77.793 180 90 180 94.59 179.668 99.109 179 103.551L178.992 103.543 178.789 103.367 178.582 103.199 178.367 103.043 178.145 102.895 177.914 102.754 177.68 102.629 177.438 102.512 177.191 102.406 176.941 102.312 176.793 102.262C177.352 98.238 177.633 94.152 177.633 90 177.633 78.113 175.336 66.742 170.746 55.891 166.312 45.406 160.051 36.121 151.965 28.035 143.879 19.949 134.594 13.688 124.109 9.254 113.258 4.664 101.887 2.367 90 2.367 78.113 2.367 66.742 4.664 55.891 9.254 45.406 13.688 36.121 19.949 28.035 28.035 19.949 36.121 13.688 45.406 9.254 55.891 4.664 66.742 2.367 78.113 2.367 90 2.367 94.922 2.762 99.758 3.551 104.504L2.555 105.281 2.07 105.703 1.926 105.844 1.488 106.32 1.465 106.344C.488 101.008 0 95.559 0 90 0 77.793 2.359 66.117 7.074 54.969 11.629 44.199 18.055 34.664 26.359 26.359ZM153.641 153.641C145.336 161.945 135.801 168.371 125.031 172.926 113.883 177.641 102.207 180 90 180 77.793 180 66.117 177.641 54.969 172.926 44.199 168.371 34.664 161.945 26.359 153.641 24.734 152.016 23.18 150.34 21.699 148.621L24.785 148.543C25.836 149.707 26.918 150.848 28.035 151.965 36.121 160.051 45.406 166.312 55.891 170.746 66.742 175.336 78.113 177.633 90 177.633 101.887 177.633 113.258 175.336 124.109 170.746 134.594 166.312 143.879 160.051 151.965 151.965 153.293 150.637 154.574 149.273 155.805 147.883L158.824 148.008C157.188 149.945 155.457 151.82 153.641 153.641ZM153.641 153.641"/>
</g>
</svg>
