<svg width="166" height="600" viewBox="0 0 166 600" fill="none" xmlns="http://www.w3.org/2000/svg">
<path d="M53.976 481.674C53.976 478.474 54.36 476.042 55.128 474.378C55.832 472.714 56.632 471.242 57.528 469.962C57.976 469.194 58.328 468.586 58.584 468.138C58.776 467.626 58.872 467.146 58.872 466.698C58.872 466.058 58.52 465.61 57.816 465.354C57.112 465.034 56.056 464.778 54.648 464.586V462.378C55.736 462.442 57.048 462.538 58.584 462.666C60.056 462.73 62.04 462.794 64.536 462.858C66.968 462.858 70.2 462.858 74.232 462.858V465.066C71.16 465.258 68.216 465.93 65.4 467.082C62.584 468.234 60.28 469.93 58.488 472.17C56.696 474.346 55.8 477.226 55.8 480.81C55.8 484.202 56.824 487.018 58.872 489.258C60.92 491.434 63.608 492.522 66.936 492.522C69.816 492.522 72.248 491.786 74.232 490.314C76.152 488.842 77.912 486.89 79.512 484.458C81.048 481.962 82.712 479.274 84.504 476.394C86.552 473.066 88.6 470.122 90.648 467.562C92.632 464.938 94.84 462.89 97.272 461.418C99.704 459.882 102.648 459.114 106.104 459.114C110.2 459.114 113.592 460.042 116.28 461.898C118.968 463.754 120.984 466.218 122.328 469.29C123.672 472.362 124.344 475.754 124.344 479.466C124.344 482.858 123.96 485.546 123.192 487.53C122.424 489.514 121.624 491.21 120.792 492.618C119.896 494.026 119.448 495.114 119.448 495.882C119.448 496.522 119.8 497.002 120.504 497.322C121.208 497.578 122.264 497.802 123.672 497.994V500.202C122.328 500.074 120.76 500.01 118.968 500.01C117.112 499.946 114.712 499.914 111.768 499.914C108.824 499.85 105.112 499.818 100.632 499.818V497.61C104.472 497.354 108.056 496.65 111.384 495.498C114.712 494.282 117.4 492.458 119.448 490.026C121.432 487.53 122.424 484.234 122.424 480.138C122.424 478.026 122.008 476.042 121.176 474.186C120.28 472.266 118.904 470.698 117.048 469.482C115.128 468.266 112.664 467.658 109.656 467.658C107.032 467.658 104.76 468.298 102.84 469.578C100.856 470.794 99.032 472.522 97.368 474.762C95.64 477.002 93.88 479.626 92.088 482.634C90.232 485.642 88.344 488.458 86.424 491.082C84.504 493.706 82.296 495.818 79.8 497.418C77.24 498.954 74.168 499.722 70.584 499.722C66.808 499.722 63.704 498.89 61.272 497.226C58.776 495.498 56.952 493.258 55.8 490.506C54.584 487.754 53.976 484.81 53.976 481.674ZM123 410.246H121.08C120.952 408.07 120.696 406.438 120.312 405.35C119.928 404.198 119.16 403.43 118.008 403.046C116.856 402.662 115.128 402.47 112.824 402.47H65.208C62.84 402.47 61.112 402.662 60.024 403.046C58.872 403.43 58.104 404.198 57.72 405.35C57.272 406.438 57.016 408.07 56.952 410.246H55.032C55.096 408.774 55.16 406.918 55.224 404.678C55.288 402.438 55.32 400.23 55.32 398.054C55.32 395.558 55.288 393.222 55.224 391.046C55.16 388.87 55.096 387.11 55.032 385.766H56.952C57.016 387.942 57.272 389.606 57.72 390.758C58.104 391.846 58.872 392.582 60.024 392.966C61.112 393.35 62.84 393.542 65.208 393.542H112.824C115.128 393.542 116.856 393.35 118.008 392.966C119.16 392.582 119.928 391.846 120.312 390.758C120.696 389.606 120.952 387.942 121.08 385.766H123C122.872 387.11 122.808 388.87 122.808 391.046C122.744 393.222 122.712 395.558 122.712 398.054C122.712 400.23 122.744 402.438 122.808 404.678C122.808 406.918 122.872 408.774 123 410.246ZM123 450.374H121.08C120.952 448.198 120.696 446.566 120.312 445.478C119.928 444.326 119.16 443.558 118.008 443.174C116.856 442.79 115.128 442.598 112.824 442.598H65.208C62.84 442.598 61.112 442.79 60.024 443.174C58.872 443.558 58.104 444.326 57.72 445.478C57.272 446.566 57.016 448.198 56.952 450.374H55.032C55.096 449.03 55.16 447.27 55.224 445.094C55.288 442.918 55.32 440.582 55.32 438.086C55.32 435.846 55.288 433.638 55.224 431.462C55.16 429.222 55.096 427.366 55.032 425.894H56.952C57.016 428.07 57.272 429.734 57.72 430.886C58.104 431.974 58.872 432.71 60.024 433.094C61.112 433.478 62.84 433.67 65.208 433.67H112.824C115.128 433.67 116.856 433.478 118.008 433.094C119.16 432.71 119.928 431.974 120.312 430.886C120.696 429.734 120.952 428.07 121.08 425.894H123C122.872 427.366 122.808 429.222 122.808 431.462C122.744 433.638 122.712 435.846 122.712 438.086C122.712 440.582 122.744 442.918 122.808 445.094C122.808 447.27 122.872 449.03 123 450.374ZM89.784 437.03H87.864V399.11H89.784V437.03ZM54.552 350.742L114.936 327.318C117.368 326.358 119 325.27 119.832 324.054C120.6 322.838 121.016 321.718 121.08 320.694H123C122.872 321.974 122.808 323.542 122.808 325.398C122.744 327.254 122.712 329.11 122.712 330.966C122.712 333.462 122.744 335.798 122.808 337.974C122.808 340.15 122.872 341.91 123 343.254H121.08C120.952 339.99 120.408 337.91 119.448 337.014C118.424 336.118 116.28 336.31 113.016 337.59L65.304 355.446L64.056 353.91L107.448 370.614C110.008 371.638 112.184 372.246 113.976 372.438C115.704 372.63 117.08 372.47 118.104 371.958C119.128 371.382 119.864 370.454 120.312 369.174C120.76 367.83 121.016 366.166 121.08 364.182H123C122.872 365.974 122.808 367.862 122.808 369.846C122.744 371.766 122.712 373.558 122.712 375.222C122.712 376.822 122.744 378.198 122.808 379.35C122.808 380.438 122.872 381.462 123 382.422H121.08C120.76 381.142 120.024 379.83 118.872 378.486C117.656 377.142 115.608 375.926 112.728 374.838L54.552 352.278C54.552 352.022 54.552 351.766 54.552 351.51C54.552 351.254 54.552 350.998 54.552 350.742ZM95.352 339.03H97.272V367.638L95.352 366.678V339.03ZM55.032 319.124C55.096 317.78 55.16 316.02 55.224 313.844C55.288 311.668 55.32 309.524 55.32 307.412C55.32 304.404 55.288 301.524 55.224 298.772C55.16 296.02 55.128 294.068 55.128 292.916C55.128 287.732 55.864 283.444 57.336 280.052C58.808 276.596 60.824 274.036 63.384 272.372C65.88 270.644 68.696 269.78 71.832 269.78C73.752 269.78 75.8 270.164 77.976 270.932C80.152 271.7 82.2 273.044 84.12 274.964C86.04 276.82 87.64 279.38 88.92 282.644C90.136 285.908 90.744 290.036 90.744 295.028V304.244H88.824V295.988C88.824 291.444 88.12 287.988 86.712 285.62C85.24 283.188 83.32 281.556 80.952 280.724C78.52 279.828 75.832 279.38 72.888 279.38C67.832 279.38 63.928 280.596 61.176 283.028C58.36 285.396 56.952 289.492 56.952 295.316C56.952 298.26 57.496 300.18 58.584 301.076C59.672 301.972 61.88 302.42 65.208 302.42H112.824C115.128 302.42 116.856 302.228 118.008 301.844C119.16 301.46 119.928 300.724 120.312 299.636C120.696 298.484 120.952 296.82 121.08 294.644H123C122.872 296.116 122.808 297.972 122.808 300.212C122.744 302.388 122.712 304.596 122.712 306.836C122.712 309.332 122.744 311.668 122.808 313.844C122.808 316.02 122.872 317.78 123 319.124H121.08C120.952 316.948 120.696 315.316 120.312 314.228C119.928 313.076 119.16 312.308 118.008 311.924C116.856 311.54 115.128 311.348 112.824 311.348H65.208C62.84 311.348 61.112 311.54 60.024 311.924C58.872 312.308 58.104 313.076 57.72 314.228C57.272 315.316 57.016 316.948 56.952 319.124H55.032ZM89.112 303.86C89.24 300.404 89.4 297.684 89.592 295.7C89.72 293.716 89.848 292.116 89.976 290.9C90.104 289.62 90.264 288.404 90.456 287.252C91.16 282.964 92.472 279.892 94.392 278.036C96.248 276.116 99.16 274.708 103.128 273.812L112.92 271.412C115.736 270.772 117.784 270.132 119.064 269.492C120.28 268.788 120.856 267.732 120.792 266.324C120.728 265.236 120.376 264.34 119.736 263.636C119.096 262.868 118.232 262.068 117.144 261.236L118.2 259.796C120.184 261.14 121.72 262.548 122.808 264.02C123.832 265.428 124.344 267.444 124.344 270.068C124.344 272.436 123.64 274.516 122.232 276.308C120.824 278.1 118.072 279.444 113.976 280.34L104.376 282.452C101.624 283.028 99.256 283.7 97.272 284.468C95.224 285.172 93.624 286.196 92.472 287.54C91.32 288.82 90.744 290.74 90.744 293.3V303.668L89.112 303.86ZM55.032 232.394H56.952C57.016 234.57 57.272 236.234 57.72 237.386C58.104 238.474 58.872 239.21 60.024 239.594C61.112 239.978 62.84 240.17 65.208 240.17H112.824C115.128 240.17 116.856 239.978 118.008 239.594C119.16 239.21 119.928 238.474 120.312 237.386C120.696 236.234 120.952 234.57 121.08 232.394H123C122.872 233.866 122.808 235.722 122.808 237.962C122.744 240.138 122.712 242.346 122.712 244.586C122.712 247.082 122.744 249.418 122.808 251.594C122.808 253.77 122.872 255.53 123 256.874H121.08C120.952 254.698 120.696 253.066 120.312 251.978C119.928 250.826 119.16 250.058 118.008 249.674C116.856 249.29 115.128 249.098 112.824 249.098H65.208C62.84 249.098 61.112 249.29 60.024 249.674C58.872 250.058 58.104 250.826 57.72 251.978C57.272 253.066 57.016 254.698 56.952 256.874H55.032C55.096 255.53 55.16 253.77 55.224 251.594C55.288 249.418 55.32 247.082 55.32 244.586C55.32 242.346 55.288 240.138 55.224 237.962C55.16 235.722 55.096 233.866 55.032 232.394ZM55.032 164.055H56.952C57.016 166.231 57.336 167.895 57.912 169.047C58.488 170.135 59.416 170.871 60.696 171.255C61.976 171.639 63.8 171.831 66.168 171.831H123.48C123.48 172.215 123.48 172.599 123.48 172.983C123.48 173.303 123.48 173.655 123.48 174.039L61.176 214.359H111.864C114.168 214.359 115.992 214.167 117.336 213.783C118.616 213.335 119.544 212.503 120.12 211.287C120.632 210.007 120.952 208.119 121.08 205.623H123C122.872 206.775 122.808 208.279 122.808 210.135C122.744 211.991 122.712 213.751 122.712 215.415C122.712 217.015 122.744 218.647 122.808 220.311C122.808 221.911 122.872 223.255 123 224.343H121.08C120.952 222.167 120.632 220.535 120.12 219.447C119.544 218.295 118.616 217.527 117.336 217.143C115.992 216.759 114.168 216.567 111.864 216.567H65.208C62.84 216.567 61.112 216.759 60.024 217.143C58.872 217.527 58.104 218.295 57.72 219.447C57.272 220.535 57.016 222.167 56.952 224.343H55.032C55.096 223.255 55.16 221.911 55.224 220.311C55.288 218.647 55.32 217.015 55.32 215.415C55.32 214.007 55.288 212.663 55.224 211.383C55.16 210.103 55.096 208.951 55.032 207.927L107.256 174.039H66.168C63.8 174.039 61.976 174.263 60.696 174.711C59.416 175.095 58.488 175.927 57.912 177.207C57.336 178.423 57.016 180.279 56.952 182.775H55.032C55.096 181.623 55.16 180.119 55.224 178.263C55.288 176.343 55.32 174.583 55.32 172.983C55.32 171.319 55.288 169.687 55.224 168.087C55.16 166.423 55.096 165.079 55.032 164.055ZM53.688 125.154C53.688 120.994 54.328 117.634 55.608 115.074C56.824 112.514 58.264 110.114 59.928 107.874C60.568 107.042 60.888 106.402 60.888 105.954C60.888 104.738 58.936 103.938 55.032 103.554V101.346C57.4 101.474 60.28 101.57 63.672 101.634C67.064 101.698 71.544 101.73 77.112 101.73V103.938C74.424 104.386 71.832 104.93 69.336 105.57C66.84 106.21 64.696 107.266 62.904 108.738C60.536 110.594 58.712 113.026 57.432 116.034C56.088 119.042 55.416 122.146 55.416 125.346C55.416 128.546 56.216 131.458 57.816 134.082C59.352 136.642 61.592 138.85 64.536 140.706C67.48 142.562 71.032 144.002 75.192 145.026C79.288 145.986 83.928 146.466 89.112 146.466C100.632 146.466 109.08 144.61 114.456 140.898C119.768 137.186 122.424 131.426 122.424 123.618C122.424 121.314 122.104 119.33 121.464 117.666C120.76 115.938 120.088 114.594 119.448 113.634C118.616 112.418 117.848 111.65 117.144 111.33C116.376 111.01 115.384 110.85 114.168 110.85H104.952C102.328 110.85 100.376 111.106 99.096 111.618C97.816 112.13 96.952 113.09 96.504 114.498C96.056 115.842 95.8 117.858 95.736 120.546H93.816C93.88 119.394 93.944 118.05 94.008 116.514C94.008 114.978 94.04 113.378 94.104 111.714C94.104 109.986 94.104 108.418 94.104 107.01C94.104 104.898 94.072 103.01 94.008 101.346C93.944 99.618 93.88 98.178 93.816 97.026H95.736C95.8 98.434 96.024 99.49 96.408 100.194C96.792 100.898 97.56 101.378 98.712 101.634C99.864 101.826 101.624 101.922 103.992 101.922H123V103.842C121.912 103.906 120.728 104.162 119.448 104.61C118.168 104.994 117.528 105.602 117.528 106.434C117.528 106.818 117.624 107.202 117.816 107.586C118.008 107.97 118.456 108.642 119.16 109.602C120.76 111.714 122.04 113.954 123 116.322C123.896 118.69 124.344 121.442 124.344 124.578C124.344 131.17 123 136.834 120.312 141.57C117.56 146.242 113.624 149.826 108.504 152.322C103.384 154.818 97.272 156.066 90.168 156.066C82.68 156.066 76.216 154.722 70.776 152.034C65.336 149.346 61.144 145.698 58.2 141.09C55.192 136.418 53.688 131.106 53.688 125.154Z" fill="white"/>
<line x1="122.5" y1="583.099" x2="122.5" y2="21.1268" stroke="white"/>
</svg>
