<svg width="204" height="2052" viewBox="0 0 204 2052" fill="none" xmlns="http://www.w3.org/2000/svg">
<path d="M72.8729 1280.59C72.8753 1277.39 73.2611 1274.96 74.0304 1273.29C74.7357 1271.63 75.5368 1270.16 76.4337 1268.88C76.8823 1268.11 77.2348 1267.5 77.4911 1267.06C77.6835 1266.54 77.7799 1266.07 77.7802 1265.62C77.7807 1264.98 77.429 1264.53 76.7252 1264.27C76.0215 1263.95 74.9657 1263.69 73.5578 1263.5L73.5595 1261.29C74.6474 1261.36 75.9594 1261.46 77.4953 1261.58C78.9672 1261.65 80.9512 1261.72 83.4471 1261.78C85.8791 1261.78 89.1111 1261.79 93.1431 1261.79L93.1414 1264C90.0693 1264.19 87.1248 1264.86 84.3079 1266.01C81.491 1267.16 79.1858 1268.85 77.3921 1271.09C75.5984 1273.26 74.7002 1276.14 74.6975 1279.73C74.695 1283.12 75.7168 1285.94 77.7631 1288.18C79.8095 1290.35 82.4967 1291.44 85.8247 1291.45C88.7047 1291.45 91.1372 1290.72 93.1223 1289.24C95.0434 1287.77 96.8049 1285.82 98.4068 1283.39C99.9446 1280.9 101.611 1278.21 103.405 1275.33C105.455 1272.01 107.506 1269.06 109.556 1266.51C111.542 1263.88 113.751 1261.84 116.184 1260.37C118.617 1258.83 121.562 1258.07 125.018 1258.07C129.114 1258.07 132.505 1259 135.192 1260.86C137.878 1262.72 139.893 1265.18 141.234 1268.26C142.576 1271.33 143.245 1274.72 143.243 1278.43C143.24 1281.83 142.854 1284.51 142.084 1286.5C141.315 1288.48 140.514 1290.18 139.681 1291.58C138.784 1292.99 138.335 1294.08 138.334 1294.85C138.334 1295.49 138.685 1295.97 139.389 1296.29C140.093 1296.54 141.149 1296.77 142.556 1296.96L142.555 1299.17C141.211 1299.04 139.643 1298.98 137.851 1298.97C135.995 1298.91 133.595 1298.88 130.651 1298.87C127.707 1298.81 123.995 1298.77 119.515 1298.77L119.517 1296.56C123.357 1296.31 126.942 1295.61 130.27 1294.46C133.599 1293.24 136.289 1291.42 138.339 1288.99C140.324 1286.5 141.319 1283.2 141.322 1279.11C141.324 1276.99 140.909 1275.01 140.079 1273.15C139.184 1271.23 137.809 1269.66 135.954 1268.45C134.035 1267.23 131.571 1266.62 128.563 1266.62C125.939 1266.61 123.667 1267.25 121.746 1268.53C119.761 1269.74 117.936 1271.47 116.27 1273.71C114.54 1275.95 112.778 1278.57 110.984 1281.58C109.126 1284.58 107.236 1287.4 105.314 1290.02C103.392 1292.64 101.182 1294.75 98.6849 1296.35C96.1238 1297.89 93.0512 1298.65 89.4672 1298.65C85.6912 1298.65 82.5878 1297.81 80.1571 1296.15C77.6624 1294.42 75.8401 1292.18 74.6902 1289.42C73.4763 1286.67 72.8705 1283.73 72.8729 1280.59ZM73.9926 1196.49C76.4244 1196.75 78.7922 1196.94 81.0961 1197.07C83.3361 1197.14 85.064 1197.17 86.28 1197.17C87.816 1197.17 89.2561 1197.14 90.6001 1197.08C91.9442 1197.02 93.1282 1196.95 94.1523 1196.89L94.1506 1199.1C89.6703 1199.54 86.1498 1200.15 83.5892 1200.91C80.9646 1201.68 79.0756 1203.02 77.9222 1204.94C76.7687 1206.86 76.1905 1209.84 76.1874 1213.87L76.1835 1219.05L130.807 1219.09C133.367 1219.1 135.288 1218.87 136.568 1218.43C137.848 1217.91 138.713 1216.96 139.162 1215.55C139.611 1214.14 139.901 1212.09 140.031 1209.4L141.951 1209.41C141.822 1211.07 141.756 1213.18 141.754 1215.74C141.688 1218.3 141.654 1220.89 141.652 1223.52C141.65 1226.4 141.68 1229.12 141.742 1231.68C141.74 1234.17 141.803 1236.19 141.929 1237.73L140.009 1237.72C139.883 1235.04 139.597 1232.99 139.15 1231.58C138.703 1230.17 137.84 1229.24 136.56 1228.79C135.281 1228.28 133.361 1228.02 130.801 1228.02L76.1767 1227.98L76.1728 1233.16C76.1698 1237.13 76.7435 1240.11 77.894 1242.09C79.0446 1244.01 80.9316 1245.36 83.555 1246.13C86.1144 1246.9 89.6339 1247.51 94.1136 1247.96L94.1119 1250.17C93.088 1250.04 91.9041 1249.98 90.5601 1249.97C89.2161 1249.91 87.7761 1249.88 86.2401 1249.88C85.0241 1249.87 83.2961 1249.94 81.056 1250.06C78.7519 1250.13 76.3838 1250.28 73.9516 1250.54C74.0177 1247.85 74.0839 1244.94 74.1502 1241.8C74.2167 1238.6 74.2511 1235.4 74.2535 1232.2C74.2559 1229 74.2581 1226.09 74.2601 1223.47C74.2621 1220.84 74.2643 1217.96 74.2667 1214.83C74.2691 1211.63 74.2395 1208.43 74.1779 1205.23C74.1164 1202.03 74.0546 1199.11 73.9926 1196.49ZM74.034 1141.76C76.2738 1142.02 78.4497 1142.21 80.5616 1142.34C82.6735 1142.41 84.2735 1142.44 85.3615 1142.44C86.5135 1142.44 87.6335 1142.41 88.7216 1142.35C89.7456 1142.29 90.6097 1142.22 91.3137 1142.16L91.312 1144.37C87.5358 1144.75 84.5593 1145.29 82.3828 1145.99C80.1423 1146.69 78.5734 1147.91 77.676 1149.64C76.7148 1151.3 76.2329 1153.83 76.2303 1157.22L76.2243 1165.19C76.2226 1167.36 76.4134 1169.03 76.7965 1170.18C77.1157 1171.27 77.8511 1172 79.0028 1172.39C80.0905 1172.77 81.8184 1172.97 84.1864 1172.97L131.802 1173.01C134.106 1173.01 135.835 1172.82 136.987 1172.43C138.139 1172.05 138.908 1171.31 139.292 1170.23C139.613 1169.08 139.775 1167.41 139.776 1165.24L139.782 1158.23C139.785 1154.2 139.243 1151.15 138.156 1149.11C137.07 1146.99 135.311 1145.49 132.88 1144.59C130.385 1143.63 127.025 1142.92 122.801 1142.47L122.803 1140.26C124.531 1140.46 126.835 1140.55 129.715 1140.56C130.931 1140.56 132.691 1140.53 134.995 1140.46C137.235 1140.34 139.571 1140.15 142.003 1139.89C141.873 1143.16 141.806 1146.84 141.803 1150.93C141.736 1155.03 141.701 1158.68 141.699 1161.88C141.698 1163.28 141.696 1165.11 141.695 1167.35C141.693 1169.52 141.723 1171.89 141.785 1174.45C141.783 1177.01 141.813 1179.6 141.875 1182.23C141.873 1184.85 141.904 1187.35 141.966 1189.72L140.046 1189.72C139.919 1187.54 139.665 1185.91 139.281 1184.82C138.898 1183.67 138.131 1182.9 136.979 1182.51C135.827 1182.13 134.1 1181.93 131.796 1181.93L84.1796 1181.9C81.8116 1181.9 80.0835 1182.09 78.9952 1182.47C77.8429 1182.85 77.0743 1183.62 76.6894 1184.77C76.2406 1185.86 75.9834 1187.49 75.9177 1189.67L73.9977 1189.67C74.0635 1187.3 74.1294 1184.8 74.1954 1182.18C74.1974 1179.55 74.2314 1176.96 74.2973 1174.4C74.2992 1171.84 74.301 1169.47 74.3027 1167.3C74.3044 1165.06 74.3057 1163.23 74.3068 1161.83C74.309 1158.88 74.3116 1155.55 74.3144 1151.84C74.2532 1148.07 74.1598 1144.71 74.034 1141.76ZM106.853 1158.3C106.853 1158.3 107.173 1158.3 107.813 1158.3C108.453 1158.3 108.773 1158.3 108.773 1158.3L108.76 1175.87C108.76 1175.87 108.44 1175.87 107.8 1175.87C107.16 1175.87 106.84 1175.87 106.84 1175.87L106.853 1158.3ZM94.1836 1155.5C97.8314 1155.76 100.615 1155.89 102.535 1155.9C104.455 1155.83 106.215 1155.8 107.815 1155.8C109.415 1155.8 111.175 1155.77 113.095 1155.71C115.016 1155.65 117.8 1155.49 121.448 1155.24L121.446 1157.45C119.398 1157.7 117.414 1158.02 115.493 1158.4C113.509 1158.72 111.909 1159.49 110.692 1160.7C109.411 1161.85 108.769 1163.84 108.767 1166.65L106.847 1166.65C106.849 1164.54 106.434 1162.94 105.603 1161.85C104.708 1160.7 103.588 1159.86 102.245 1159.35C100.901 1158.84 99.5254 1158.48 98.1175 1158.29C96.6456 1158.1 95.3338 1157.91 94.1819 1157.71L94.1836 1155.5ZM73.5825 1104.19L133.984 1080.81C136.417 1079.85 138.05 1078.77 138.883 1077.55C139.652 1076.34 140.068 1075.22 140.133 1074.19L142.053 1074.19C141.924 1075.47 141.859 1077.04 141.858 1078.9C141.792 1080.75 141.759 1082.61 141.757 1084.46C141.756 1086.96 141.786 1089.3 141.848 1091.47C141.846 1093.65 141.909 1095.41 142.036 1096.75L140.116 1096.75C139.991 1093.49 139.448 1091.41 138.489 1090.51C137.466 1089.61 135.321 1089.8 132.056 1091.08L84.3309 1108.9L83.0841 1107.36L126.463 1124.1C129.023 1125.13 131.198 1125.74 132.99 1125.93C134.718 1126.12 136.094 1125.96 137.118 1125.45C138.143 1124.88 138.88 1123.95 139.328 1122.67C139.778 1121.33 140.035 1119.66 140.1 1117.68L142.02 1117.68C141.891 1119.47 141.825 1121.36 141.824 1123.34C141.759 1125.26 141.725 1127.06 141.724 1128.72C141.723 1130.32 141.754 1131.7 141.817 1132.85C141.816 1133.94 141.879 1134.96 142.006 1135.92L140.086 1135.92C139.767 1134.64 139.032 1133.33 137.881 1131.98C136.666 1130.64 134.619 1129.42 131.74 1128.33L73.5813 1105.73C73.5815 1105.47 73.5817 1105.21 73.5819 1104.96C73.5821 1104.7 73.5823 1104.45 73.5825 1104.19ZM114.391 1092.51L116.311 1092.51L116.29 1121.12L114.37 1120.16L114.391 1092.51ZM74.1281 1017.56L76.0481 1017.57C76.3026 1019.55 76.9411 1021.47 77.9637 1023.33C78.9863 1025.18 80.6809 1027.04 83.0475 1028.9L106.745 1047.44L102.043 1045.33L134.316 1022.31C135.917 1021.23 137.166 1020.04 138.063 1018.76C138.96 1017.48 139.665 1015.85 140.179 1013.87L142.099 1013.87C141.97 1015.41 141.904 1017.33 141.903 1019.63C141.837 1021.87 141.803 1023.79 141.802 1025.39C141.801 1026.48 141.832 1027.82 141.895 1029.42C141.894 1030.96 141.956 1032.91 142.083 1035.28L140.163 1035.28C140.036 1033.1 139.653 1031.73 139.014 1031.15C138.374 1030.57 137.318 1030.8 135.845 1031.82L114.715 1045.82C112.73 1047.1 111.257 1048.25 110.296 1049.27C109.271 1050.23 108.599 1051.25 108.278 1052.34C107.957 1053.37 107.764 1054.68 107.699 1056.28L105.779 1056.28C105.717 1053.59 105.206 1051.35 104.248 1049.55C103.225 1047.7 101.946 1046.16 100.411 1044.94L88.7063 1035.72C86.0199 1033.6 83.749 1032.16 81.8936 1031.39C80.0382 1030.62 78.6302 1030.66 77.6695 1031.49C76.6449 1032.32 76.0996 1034.08 76.0335 1036.77L74.1135 1036.76C74.1784 1035.55 74.2434 1034.3 74.3084 1033.02C74.3093 1031.74 74.3423 1030.49 74.4072 1029.28C74.4082 1028 74.4091 1026.81 74.4099 1025.72C74.4111 1024.06 74.3803 1022.52 74.3174 1021.12C74.2544 1019.71 74.1913 1018.52 74.1281 1017.56ZM74.1049 1048.09L76.0249 1048.09C76.0873 1050.27 76.342 1051.93 76.7892 1053.09C77.1723 1054.17 77.9398 1054.91 79.0915 1055.3C80.1792 1055.68 81.9071 1055.87 84.2751 1055.88L131.891 1055.91C134.195 1055.91 135.923 1055.72 137.075 1055.34C138.228 1054.96 138.996 1054.22 139.381 1053.13C139.766 1051.98 140.023 1050.32 140.153 1048.14L142.073 1048.14C141.944 1049.62 141.878 1051.47 141.877 1053.71C141.811 1055.89 141.777 1058.09 141.776 1060.33C141.774 1062.83 141.804 1065.17 141.866 1067.34C141.865 1069.52 141.927 1071.28 142.054 1072.62L140.134 1072.62C140.008 1070.45 139.753 1068.81 139.37 1067.73C138.987 1066.57 138.22 1065.8 137.068 1065.42C135.916 1065.03 134.188 1064.84 131.884 1064.84L84.2683 1064.8C81.9003 1064.8 80.1721 1064.99 79.0839 1065.38C77.9316 1065.76 77.163 1066.53 76.7781 1067.68C76.3293 1068.77 76.0721 1070.4 76.0064 1072.57L74.0864 1072.57C74.1514 1071.23 74.2168 1069.47 74.2824 1067.29C74.3481 1065.12 74.3818 1062.78 74.3837 1060.28C74.3854 1058.04 74.3551 1055.84 74.2927 1053.66C74.2304 1051.42 74.1678 1049.56 74.1049 1048.09ZM72.8321 954.174C72.8353 949.95 73.4779 946.495 74.7599 943.808C75.978 941.057 77.4198 938.626 79.0854 936.515C80.0464 935.236 80.1751 934.276 79.4716 933.635C78.7042 932.931 76.9445 932.449 74.1927 932.191L74.1944 929.983C76.5623 930.113 79.4422 930.211 82.8342 930.278C86.2261 930.344 90.7061 930.38 96.2741 930.384L96.2724 932.592C93.5201 933.038 91.3438 933.452 89.7435 933.835C88.0792 934.218 86.6708 934.697 85.5184 935.272C84.366 935.783 83.2135 936.486 82.0608 937.381C79.4353 939.363 77.5454 941.858 76.3911 944.865C75.1728 947.872 74.5624 951.04 74.5599 954.368C74.5575 957.504 75.3554 960.352 76.9535 962.913C78.4876 965.41 80.7259 967.588 83.6685 969.446C86.6112 971.241 90.1621 972.651 94.3213 973.678C98.4806 974.642 103.152 975.125 108.336 975.129C113.712 975.133 118.481 974.593 122.641 973.508C126.738 972.423 130.195 970.922 133.013 969.004C135.83 967.022 137.976 964.72 139.45 962.097C140.86 959.41 141.566 956.53 141.569 953.458C141.571 950.578 140.997 947.57 139.847 944.433C138.698 941.296 136.844 938.831 134.285 937.037C132.43 935.627 130.415 934.666 128.239 934.152C126.064 933.575 123.024 933.06 119.12 932.609L119.122 930.401C124.946 930.406 129.65 930.377 133.234 930.316C136.754 930.255 139.73 930.161 142.162 930.035L142.161 932.243C139.409 932.497 137.68 932.943 136.976 933.583C136.271 934.158 136.366 935.15 137.261 936.559C138.924 938.928 140.394 941.457 141.672 944.146C142.886 946.771 143.491 950.164 143.488 954.324C143.483 960.404 142.103 965.747 139.348 970.353C136.592 974.895 132.622 978.443 127.436 981C122.25 983.492 116.009 984.735 108.713 984.729C101.545 984.724 95.2739 983.407 89.8999 980.779C84.5259 978.151 80.3366 974.564 77.3321 970.018C74.3276 965.407 72.8276 960.126 72.8321 954.174ZM74.2468 860.818L76.1668 860.819C76.2291 862.995 76.5479 864.659 77.123 865.812C77.6982 866.9 78.6256 867.637 79.9053 868.022C81.185 868.407 83.0089 868.6 85.3769 868.602L114.273 868.624C118.753 868.627 122.657 868.918 125.984 869.497C129.312 870.075 132.191 871.101 134.622 872.575C137.309 874.177 139.483 876.515 141.145 879.588C142.742 882.661 143.54 886.182 143.537 890.15C143.534 893.222 143.148 896.166 142.378 898.981C141.672 901.733 140.326 904.164 138.34 906.274C136.547 908.129 134.658 909.599 132.673 910.686C130.688 911.708 128.256 912.41 125.375 912.792C122.495 913.174 118.879 913.363 114.527 913.36L84.383 913.337C82.015 913.335 80.2869 913.526 79.1986 913.909C78.0463 914.292 77.2777 915.06 76.8928 916.212C76.444 917.299 76.1868 918.931 76.1211 921.107L74.2011 921.105C74.2661 919.762 74.3315 918.002 74.3971 915.826C74.4628 913.65 74.4965 911.314 74.4984 908.818C74.5001 906.578 74.4698 904.37 74.4074 902.194C74.3451 899.954 74.2825 898.098 74.2197 896.625L76.1397 896.627C76.202 898.803 76.4567 900.467 76.9039 901.62C77.287 902.708 78.0545 903.444 79.2062 903.829C80.2939 904.214 82.0218 904.407 84.3898 904.409L116.166 904.433C119.43 904.436 122.534 904.278 125.478 903.96C128.358 903.642 130.919 903.004 133.16 902.046C135.336 901.024 137.066 899.489 138.347 897.442C139.565 895.395 140.175 892.675 140.177 889.283C140.181 884.419 139.128 880.675 137.018 878.049C134.844 875.359 131.869 873.501 128.094 872.474C124.319 871.383 120.063 870.836 115.327 870.833L85.3752 870.81C83.0072 870.808 81.183 871.095 79.9026 871.67C78.6222 872.181 77.6935 873.076 77.1165 874.356C76.5395 875.635 76.2182 877.363 76.1526 879.539L74.2326 879.538C74.2975 878.386 74.3626 876.882 74.428 875.026C74.4935 873.106 74.5268 871.346 74.528 869.746C74.5293 868.082 74.4985 866.45 74.4357 864.85C74.373 863.186 74.31 861.842 74.2468 860.818ZM74.2917 801.428C76.7236 801.686 79.0914 801.88 81.3953 802.009C83.6353 802.075 85.3632 802.108 86.5792 802.109C88.1152 802.11 89.5553 802.08 90.8993 802.017C92.2434 801.954 93.4274 801.891 94.4515 801.827L94.4498 804.035C89.9694 804.48 86.449 805.085 83.8884 805.851C81.2638 806.617 79.3748 807.96 78.2213 809.879C77.0679 811.798 76.4896 814.774 76.4866 818.806L76.4827 823.99L131.107 824.031C133.667 824.033 135.587 823.81 136.867 823.363C138.148 822.852 139.012 821.893 139.461 820.485C139.91 819.078 140.2 817.03 140.33 814.342L142.25 814.343C142.121 816.007 142.055 818.119 142.053 820.679C141.987 823.239 141.953 825.831 141.951 828.455C141.949 831.335 141.979 834.055 142.041 836.615C142.039 839.111 142.102 841.127 142.229 842.663L140.309 842.662C140.183 839.974 139.896 837.926 139.449 836.517C139.002 835.109 138.139 834.18 136.859 833.731C135.58 833.218 133.66 832.961 131.1 832.959L76.4759 832.918L76.472 838.102C76.469 842.07 77.0427 845.046 78.1932 847.031C79.3438 848.952 81.2307 850.297 83.8542 851.067C86.4136 851.837 89.9331 852.448 94.4128 852.899L94.4111 855.107C93.3872 854.979 92.2032 854.914 90.8592 854.913C89.5153 854.848 88.0753 854.814 86.5393 854.813C85.3233 854.812 83.5953 854.875 81.3552 855.001C79.0511 855.064 76.683 855.222 74.2508 855.476C74.3169 852.788 74.3831 849.876 74.4494 846.74C74.5159 843.54 74.5503 840.34 74.5527 837.14C74.5551 833.94 74.5573 831.028 74.5593 828.404C74.5613 825.78 74.5635 822.9 74.5659 819.764C74.5683 816.564 74.5387 813.364 74.4771 810.164C74.4156 806.964 74.3538 804.052 74.2917 801.428ZM73.2565 774.058C73.2589 770.858 73.6447 768.427 74.414 766.763C75.1193 765.1 75.9204 763.628 76.8173 762.349C77.2659 761.581 77.6184 760.974 77.8747 760.526C78.0671 760.014 78.1635 759.534 78.1638 759.086C78.1643 758.446 77.8126 757.998 77.1088 757.741C76.4051 757.421 75.3493 757.164 73.9414 756.971L73.9431 754.763C75.031 754.828 76.343 754.925 77.8789 755.054C79.3508 755.119 81.3348 755.184 83.8307 755.25C86.2627 755.252 89.4947 755.255 93.5267 755.258L93.525 757.466C90.4529 757.655 87.5084 758.325 84.6915 759.475C81.8746 760.625 79.5694 762.319 77.7757 764.558C75.982 766.732 75.0838 769.612 75.0811 773.196C75.0786 776.588 76.1004 779.404 78.1467 781.646C80.1931 783.823 82.8803 784.914 86.2083 784.916C89.0883 784.918 91.5208 784.184 93.5059 782.714C95.427 781.243 97.1885 779.292 98.7904 776.862C100.328 774.367 101.994 771.68 103.788 768.801C105.839 765.475 107.889 762.532 109.939 759.974C111.925 757.352 114.135 755.305 116.568 753.835C119.001 752.301 121.946 751.535 125.402 751.538C129.498 751.541 132.889 752.471 135.575 754.329C138.262 756.187 140.276 758.653 141.618 761.726C142.96 764.799 143.629 768.192 143.626 771.904C143.624 775.296 143.238 777.983 142.468 779.967C141.699 781.95 140.897 783.645 140.064 785.053C139.167 786.46 138.718 787.548 138.718 788.316C138.717 788.956 139.069 789.436 139.773 789.757C140.476 790.013 141.532 790.238 142.94 790.431L142.938 792.639C141.595 792.51 140.027 792.445 138.235 792.443C136.379 792.378 133.979 792.344 131.035 792.342C128.091 792.276 124.379 792.241 119.899 792.238L119.9 790.03C123.741 789.776 127.325 789.075 130.654 787.926C133.983 786.712 136.672 784.89 138.722 782.46C140.708 779.965 141.703 776.67 141.706 772.574C141.707 770.462 141.293 768.478 140.462 766.621C139.568 764.7 138.193 763.131 136.338 761.914C134.419 760.697 131.955 760.087 128.947 760.084C126.323 760.082 124.051 760.721 122.13 761.999C120.145 763.214 118.319 764.94 116.654 767.179C114.924 769.418 113.162 772.04 111.368 775.047C109.509 778.054 107.619 780.868 105.697 783.491C103.775 786.113 101.566 788.224 99.0685 789.822C96.5074 791.356 93.4348 792.122 89.8508 792.119C86.0748 792.116 82.9714 791.282 80.5407 789.616C78.046 787.886 76.2237 785.644 75.0738 782.892C73.8599 780.139 73.2541 777.194 73.2565 774.058Z" fill="white"/>
<line x1="140.93" y1="1897.91" x2="142.267" y2="132.301" stroke="white"/>
</svg>
